<svg width="24" height="24" viewBox="0 0 24 24" fill="none" xmlns="http://www.w3.org/2000/svg">
<mask id="mask0_3722_527" style="mask-type:alpha" maskUnits="userSpaceOnUse" x="0" y="0" width="24" height="24">
<rect width="24" height="24" fill="#191817"/>
</mask>
<g mask="url(#mask0_3722_527)">
<path d="M17.6538 19.6542C16.7169 19.6542 15.925 19.3308 15.278 18.6839C14.6312 18.0369 14.3077 17.245 14.3077 16.3082C14.3077 15.3712 14.6312 14.5793 15.278 13.9324C15.925 13.2854 16.7169 12.9619 17.6538 12.9619C18.5908 12.9619 19.3827 13.2854 20.0295 13.9324C20.6765 14.5793 21 15.3712 21 16.3082C21 17.245 20.6765 18.0369 20.0295 18.6839C19.3827 19.3308 18.5908 19.6542 17.6538 19.6542ZM17.6528 18.1542C18.1624 18.1542 18.5977 17.9741 18.9587 17.6139C19.3196 17.2536 19.5 16.8187 19.5 16.3092C19.5 15.7995 19.3198 15.3642 18.9595 15.0032C18.5993 14.6423 18.1644 14.4619 17.6547 14.4619C17.1451 14.4619 16.7098 14.6421 16.349 15.0024C15.9882 15.3626 15.8077 15.7975 15.8077 16.3072C15.8077 16.8168 15.9878 17.2521 16.348 17.6129C16.7083 17.9738 17.1433 18.1542 17.6528 18.1542ZM4.5 17.0582V15.5582H12.1155V17.0582H4.5ZM6.34625 11.0389C5.40925 11.0389 4.61733 10.7154 3.9705 10.0684C3.3235 9.4216 3 8.62968 3 7.69268C3 6.75585 3.3235 5.96393 3.9705 5.31693C4.61733 4.6701 5.40925 4.34668 6.34625 4.34668C7.28308 4.34668 8.075 4.6701 8.722 5.31693C9.36883 5.96393 9.69225 6.75585 9.69225 7.69268C9.69225 8.62968 9.36883 9.4216 8.722 10.0684C8.075 10.7154 7.28308 11.0389 6.34625 11.0389ZM6.34525 9.53893C6.85492 9.53893 7.29017 9.35876 7.651 8.99843C8.01183 8.63826 8.19225 8.20335 8.19225 7.69368C8.19225 7.18401 8.01217 6.74876 7.652 6.38793C7.29167 6.0271 6.85675 5.84668 6.34725 5.84668C5.83758 5.84668 5.40225 6.02676 5.04125 6.38693C4.68042 6.74726 4.5 7.18218 4.5 7.69168C4.5 8.20135 4.68017 8.63668 5.0405 8.99768C5.40067 9.35851 5.83558 9.53893 6.34525 9.53893ZM11.8845 8.44268V6.94268H19.5V8.44268H11.8845Z" fill="#464542"/>
</g>
</svg>
