<svg width="18" height="18" viewBox="0 0 18 18" fill="none" xmlns="http://www.w3.org/2000/svg">
<path d="M14.8438 3.6875H3.15625C3.01535 3.6875 2.88023 3.74347 2.7806 3.8431C2.68097 3.94273 2.625 4.07785 2.625 4.21875C2.625 4.35965 2.68097 4.49477 2.7806 4.5944C2.88023 4.69403 3.01535 4.75 3.15625 4.75H3.6875V14.3125C3.6875 14.5943 3.79944 14.8645 3.9987 15.0638C4.19796 15.2631 4.46821 15.375 4.75 15.375H13.25C13.5318 15.375 13.802 15.2631 14.0013 15.0638C14.2006 14.8645 14.3125 14.5943 14.3125 14.3125V4.75H14.8438C14.9846 4.75 15.1198 4.69403 15.2194 4.5944C15.319 4.49477 15.375 4.35965 15.375 4.21875C15.375 4.07785 15.319 3.94273 15.2194 3.8431C15.1198 3.74347 14.9846 3.6875 14.8438 3.6875ZM13.25 14.3125H4.75V4.75H13.25V14.3125ZM5.8125 2.09375C5.8125 1.95285 5.86847 1.81773 5.9681 1.7181C6.06773 1.61847 6.20285 1.5625 6.34375 1.5625H11.6562C11.7971 1.5625 11.9323 1.61847 12.0319 1.7181C12.1315 1.81773 12.1875 1.95285 12.1875 2.09375C12.1875 2.23465 12.1315 2.36977 12.0319 2.4694C11.9323 2.56903 11.7971 2.625 11.6562 2.625H6.34375C6.20285 2.625 6.06773 2.56903 5.9681 2.4694C5.86847 2.36977 5.8125 2.23465 5.8125 2.09375Z" fill="#191817"/>
</svg>
