<svg width="33" height="32" viewBox="0 0 33 32" fill="none" xmlns="http://www.w3.org/2000/svg">
<path d="M24.1191 30.9428H3.63906C2.47906 30.9428 1.53906 30.0028 1.53906 28.8428V25.6328H22.2991V28.7328C22.2991 29.8228 23.0791 30.7328 24.1191 30.9428Z" stroke="#191817" stroke-width="2" stroke-miterlimit="10"/>
<path d="M22.2122 5.41369C22.1322 6.69369 22.5822 7.99369 23.5622 8.96369C25.3722 10.7737 28.2922 10.7737 30.1022 8.96369C31.9122 7.15369 31.9122 4.22369 30.1022 2.41369C28.9422 1.25369 27.3122 0.833694 25.8222 1.16369C24.9922 1.34369 24.2022 1.76369 23.5522 2.41369" stroke="#191817" stroke-width="2" stroke-miterlimit="10"/>
<path d="M20.1094 8.53469L21.5094 5.55469L24.7494 6.41469" stroke="#191817" stroke-width="2" stroke-miterlimit="10"/>
<path d="M6.0625 25.6313V3.53125L9.2025 6.02125L12.3525 3.53125L15.4925 6.02125L18.6425 3.53125" stroke="#191817" stroke-width="2" stroke-linejoin="bevel"/>
<path d="M26.8266 12.5859V28.8659C26.8266 30.0159 25.8966 30.9459 24.7466 30.9459H22.2266" stroke="#191817" stroke-width="2" stroke-miterlimit="10"/>
<path d="M13.3578 16.4656C14.1034 16.4656 14.7078 15.8612 14.7078 15.1156C14.7078 14.37 14.1034 13.7656 13.3578 13.7656C12.6122 13.7656 12.0078 14.37 12.0078 15.1156C12.0078 15.8612 12.6122 16.4656 13.3578 16.4656Z" fill="#191817"/>
<path d="M18.9672 21.825C19.7128 21.825 20.3172 21.2206 20.3172 20.475C20.3172 19.7294 19.7128 19.125 18.9672 19.125C18.2216 19.125 17.6172 19.7294 17.6172 20.475C17.6172 21.2206 18.2216 21.825 18.9672 21.825Z" fill="#191817"/>
<path d="M19.655 14.2344L12.875 21.4744" stroke="#191817" stroke-width="2" stroke-miterlimit="10"/>
</svg>
