<svg width="33" height="32" viewBox="0 0 33 32" fill="none" xmlns="http://www.w3.org/2000/svg">
<path d="M30.8361 11.6166C31.2664 13.0075 31.4966 14.4784 31.4966 15.9994C31.4966 19.5516 30.2458 22.8136 28.1745 25.3852C27.8343 25.7955 27.474 26.2058 27.1038 26.586C24.3821 29.3077 20.6298 30.9987 16.5072 30.9987C11.8042 30.9987 7.58161 28.7974 4.82989 25.3852C2.75859 22.8136 1.50781 19.5516 1.50781 15.9994C1.50781 11.8768 3.19887 8.12445 5.91056 5.41276C8.62226 2.69106 12.3746 1 16.4972 1C18.0081 1 19.469 1.23014 20.8499 1.65041" stroke="#231F20" stroke-width="2" stroke-miterlimit="10"/>
<path d="M21.092 12.3976C21.092 9.86099 19.0357 7.80469 16.4991 7.80469C13.9625 7.80469 11.9062 9.86099 11.9062 12.3976C11.9062 14.9341 13.9625 16.9904 16.4991 16.9904C19.0357 16.9904 21.092 14.9341 21.092 12.3976Z" stroke="#231F20" stroke-width="2" stroke-miterlimit="10"/>
<path d="M4.82031 25.3883C5.02044 25.1682 5.23057 24.938 5.4407 24.7279C8.26246 21.8861 12.1949 20.125 16.4876 20.125C20.7803 20.125 24.7027 21.8861 27.5345 24.7279C27.7446 24.938 27.9548 25.1682 28.1549 25.3883" stroke="#231F20" stroke-width="2" stroke-miterlimit="10"/>
<path d="M26.6016 1V10.6861" stroke="#231F20" stroke-width="2" stroke-miterlimit="10"/>
<path d="M21.7578 5.84375H31.4439" stroke="#231F20" stroke-width="2" stroke-miterlimit="10"/>
</svg>
