<svg width="32" height="32" viewBox="0 0 32 32" fill="none" xmlns="http://www.w3.org/2000/svg">
<path d="M30.6694 22.1397C28.3194 19.7897 25.5894 16.6797 22.9894 12.7197C20.1894 8.45969 18.3494 4.43969 17.1094 1.17969" stroke="url(#paint0_linear_5939_252992)" stroke-width="2" stroke-linejoin="bevel"/>
<path d="M1.00781 22.1397C3.35781 19.7897 6.08781 16.6797 8.68781 12.7197C11.4878 8.45969 13.3278 4.43969 14.5678 1.17969" stroke="url(#paint1_linear_5939_252992)" stroke-width="2" stroke-linejoin="bevel"/>
<path d="M3.19531 24.3295C6.44531 23.6595 11.1053 23.0195 15.8453 23.0395C20.9453 23.0595 24.8853 23.7295 28.2853 24.5095" stroke="url(#paint2_linear_5939_252992)" stroke-width="2" stroke-linejoin="bevel"/>
<path d="M30.6694 9.85938C28.3194 12.2094 25.5894 15.3194 22.9894 19.2794C20.1894 23.5394 18.3494 27.5594 17.1094 30.8194" stroke="url(#paint3_linear_5939_252992)" stroke-width="2" stroke-linejoin="bevel"/>
<path d="M1.00781 9.85938C3.35781 12.2094 6.08781 15.3194 8.68781 19.2794C11.4878 23.5394 13.3278 27.5594 14.5678 30.8194" stroke="url(#paint4_linear_5939_252992)" stroke-width="2" stroke-linejoin="bevel"/>
<path d="M3.19531 7.6625C6.44531 8.3325 11.1053 8.9725 15.8453 8.9525C20.9453 8.9325 24.9653 8.3325 28.3653 7.5625" stroke="url(#paint5_linear_5939_252992)" stroke-width="2" stroke-linejoin="bevel"/>
<path d="M9.69781 30.8319H21.9778L30.6678 22.1419V9.86187L21.9778 1.17188H9.69781L1.00781 9.86187V22.1419L9.69781 30.8319Z" stroke="url(#paint6_linear_5939_252992)" stroke-width="2" stroke-linejoin="bevel"/>
<defs>
<linearGradient id="paint0_linear_5939_252992" x1="16.1694" y1="11.8297" x2="31.3694" y2="11.8297" gradientUnits="userSpaceOnUse">
<stop offset="0.05" stop-color="#0064FF"/>
<stop offset="0.3" stop-color="#0B58D0"/>
<stop offset="0.49" stop-color="#154EA8"/>
<stop offset="0.58" stop-color="#1350B1"/>
<stop offset="0.74" stop-color="#0E58CA"/>
<stop offset="0.93" stop-color="#0664F4"/>
<stop offset="0.98" stop-color="#0568FF"/>
</linearGradient>
<linearGradient id="paint1_linear_5939_252992" x1="0.297813" y1="11.8297" x2="15.4978" y2="11.8297" gradientUnits="userSpaceOnUse">
<stop offset="0.05" stop-color="#0064FF"/>
<stop offset="0.3" stop-color="#0B58D0"/>
<stop offset="0.49" stop-color="#154EA8"/>
<stop offset="0.58" stop-color="#1350B1"/>
<stop offset="0.74" stop-color="#0E58CA"/>
<stop offset="0.93" stop-color="#0664F4"/>
<stop offset="0.98" stop-color="#0568FF"/>
</linearGradient>
<linearGradient id="paint2_linear_5939_252992" x1="2.99531" y1="23.7595" x2="28.5153" y2="23.7595" gradientUnits="userSpaceOnUse">
<stop offset="0.05" stop-color="#0064FF"/>
<stop offset="0.3" stop-color="#0B58D0"/>
<stop offset="0.49" stop-color="#154EA8"/>
<stop offset="0.58" stop-color="#1350B1"/>
<stop offset="0.74" stop-color="#0E58CA"/>
<stop offset="0.93" stop-color="#0664F4"/>
<stop offset="0.98" stop-color="#0568FF"/>
</linearGradient>
<linearGradient id="paint3_linear_5939_252992" x1="0.00937582" y1="20.1594" x2="1.00938" y2="20.1594" gradientUnits="userSpaceOnUse">
<stop offset="0.05" stop-color="#0064FF"/>
<stop offset="0.3" stop-color="#0B58D0"/>
<stop offset="0.49" stop-color="#154EA8"/>
<stop offset="0.58" stop-color="#1350B1"/>
<stop offset="0.74" stop-color="#0E58CA"/>
<stop offset="0.93" stop-color="#0664F4"/>
<stop offset="0.98" stop-color="#0568FF"/>
</linearGradient>
<linearGradient id="paint4_linear_5939_252992" x1="0.297813" y1="20.1594" x2="15.4978" y2="20.1594" gradientUnits="userSpaceOnUse">
<stop offset="0.05" stop-color="#0064FF"/>
<stop offset="0.3" stop-color="#0B58D0"/>
<stop offset="0.49" stop-color="#154EA8"/>
<stop offset="0.58" stop-color="#1350B1"/>
<stop offset="0.74" stop-color="#0E58CA"/>
<stop offset="0.93" stop-color="#0664F4"/>
<stop offset="0.98" stop-color="#0568FF"/>
</linearGradient>
<linearGradient id="paint5_linear_5939_252992" x1="2.99531" y1="8.2825" x2="28.5953" y2="8.2825" gradientUnits="userSpaceOnUse">
<stop offset="0.05" stop-color="#0064FF"/>
<stop offset="0.3" stop-color="#0B58D0"/>
<stop offset="0.49" stop-color="#154EA8"/>
<stop offset="0.58" stop-color="#1350B1"/>
<stop offset="0.74" stop-color="#0E58CA"/>
<stop offset="0.93" stop-color="#0664F4"/>
<stop offset="0.98" stop-color="#0568FF"/>
</linearGradient>
<linearGradient id="paint6_linear_5939_252992" x1="0.0078125" y1="16.0019" x2="31.6678" y2="16.0019" gradientUnits="userSpaceOnUse">
<stop offset="0.05" stop-color="#0064FF"/>
<stop offset="0.3" stop-color="#0B58D0"/>
<stop offset="0.49" stop-color="#154EA8"/>
<stop offset="0.58" stop-color="#1350B1"/>
<stop offset="0.74" stop-color="#0E58CA"/>
<stop offset="0.93" stop-color="#0664F4"/>
<stop offset="0.98" stop-color="#0568FF"/>
</linearGradient>
</defs>
</svg>
