<svg width="201" height="159" viewBox="0 0 201 159" fill="none" xmlns="http://www.w3.org/2000/svg">
<path d="M92.2368 148.142C98.1892 148.142 103.015 143.316 103.015 137.364C103.015 131.411 98.1892 126.586 92.2368 126.586C86.2844 126.586 81.459 131.411 81.459 137.364C81.459 143.316 86.2844 148.142 92.2368 148.142Z" fill="#A3A3A3"/>
<path d="M86.5688 148.142C92.5212 148.142 97.3466 143.316 97.3466 137.364C97.3466 131.411 92.5212 126.586 86.5688 126.586C80.6164 126.586 75.791 131.411 75.791 137.364C75.791 143.316 80.6164 148.142 86.5688 148.142Z" fill="#EEEEEE"/>
<path d="M86.5686 142.754C89.5448 142.754 91.9575 140.342 91.9575 137.365C91.9575 134.389 89.5448 131.977 86.5686 131.977C83.5924 131.977 81.1797 134.389 81.1797 137.365C81.1797 140.342 83.5924 142.754 86.5686 142.754Z" fill="white"/>
<path d="M147.366 148.142C153.318 148.142 158.143 143.316 158.143 137.364C158.143 131.411 153.318 126.586 147.366 126.586C141.413 126.586 136.588 131.411 136.588 137.364C136.588 143.316 141.413 148.142 147.366 148.142Z" fill="#A3A3A3"/>
<path d="M140.774 148.142C146.726 148.142 151.552 143.316 151.552 137.364C151.552 131.411 146.726 126.586 140.774 126.586C134.821 126.586 129.996 131.411 129.996 137.364C129.996 143.316 134.821 148.142 140.774 148.142Z" fill="#EEEEEE"/>
<path d="M140.774 142.754C143.75 142.754 146.163 140.342 146.163 137.365C146.163 134.389 143.75 131.977 140.774 131.977C137.797 131.977 135.385 134.389 135.385 137.365C135.385 140.342 137.797 142.754 140.774 142.754Z" fill="white"/>
<path d="M49.4752 68.4388C48.9633 68.4388 48.4783 68.1424 48.2448 67.6484L35.1048 38.7998C33.6947 35.7012 30.5782 33.6984 27.1742 33.6984H6.44488C5.69942 33.6984 5.09766 33.0966 5.09766 32.3511C5.09766 31.6057 5.69942 31.0039 6.44488 31.0039H27.1832C31.638 31.0039 35.7156 33.6265 37.5658 37.6861L50.7057 66.5347C51.0111 67.2083 50.7147 68.0077 50.0411 68.322C49.8614 68.4029 49.6728 68.4478 49.4842 68.4478L49.4752 68.4388Z" fill="#8F8F8D"/>
<path d="M200.501 147.863H42.3906V148.761H200.501V147.863Z" fill="#8F8F8D"/>
<path d="M168.454 157.762H74.4355V158.66H168.454V157.762Z" fill="#8F8F8D"/>
<path d="M197.716 125.55H186.48C186.291 125.55 186.139 125.397 186.139 125.208C186.139 125.02 186.291 124.867 186.48 124.867H197.716C197.904 124.867 198.057 125.02 198.057 125.208C198.057 125.397 197.904 125.55 197.716 125.55Z" fill="#A3A3A3"/>
<path d="M194.078 129.116H184.369C184.18 129.116 184.027 128.963 184.027 128.775C184.027 128.586 184.18 128.434 184.369 128.434H194.078C194.266 128.434 194.419 128.586 194.419 128.775C194.419 128.963 194.266 129.116 194.078 129.116Z" fill="#A3A3A3"/>
<path d="M59.1133 57.7131L57.0835 54.7492L57.829 54.2462L59.8588 57.2101L59.1133 57.7131ZM55.0537 51.7853L53.6346 49.7016C53.4101 49.3693 53.2304 49.019 53.0957 48.6418L53.94 48.3454C54.0477 48.6418 54.1914 48.9292 54.3711 49.1986L55.7902 51.2823L55.0447 51.7853H55.0537ZM54.2184 45.2557L53.437 44.8067C53.7873 44.2049 54.2543 43.7019 54.8291 43.3068L56.2572 42.3278L56.7602 43.0732L55.3321 44.0522C54.8651 44.3666 54.4878 44.7797 54.2094 45.2647L54.2184 45.2557ZM59.733 41.0434L59.2301 40.298L62.194 38.2681L62.6969 39.0136L59.733 41.0434ZM82.3484 37.9448L81.7826 37.1185L82.5281 36.6155L83.0939 37.4418L82.3484 37.9448ZM65.6608 36.9838L65.1579 36.2383L68.1217 34.2085L68.6247 34.954L65.6608 36.9838ZM79.7528 34.1546L78.675 32.5739C78.3876 32.1607 78.0283 31.8104 77.6062 31.541L78.0912 30.7866C78.6211 31.1189 79.0702 31.55 79.4205 32.0709L80.4983 33.6517L79.7528 34.1546ZM71.5886 32.9331L71.0856 32.1877L73.0077 30.8764C73.3939 30.6069 73.816 30.4093 74.2651 30.2656L74.5256 31.1279C74.1663 31.2356 73.825 31.4063 73.5196 31.6128L71.5976 32.9331H71.5886Z" fill="#8F8F8D"/>
<path d="M83.0958 55.4542L82.2363 55.7148L82.8045 57.5886L83.664 57.3279L83.0958 55.4542Z" fill="#8F8F8D"/>
<path d="M81.0734 51.8849L79.9148 48.0498L80.777 47.7893L81.9356 51.6244L81.0734 51.8849ZM118.787 51.858L117.628 48.0229L118.49 47.7624L119.649 51.5975L118.787 51.858ZM78.7472 44.2057C78.6215 43.7566 78.5586 43.2986 78.5586 42.8405C78.5586 41.8256 78.864 40.8466 79.4388 40.0024L80.1753 40.5143C79.6992 41.2059 79.4478 42.0053 79.4478 42.8405C79.4478 43.2178 79.5016 43.595 79.6004 43.9632L78.7382 44.2057H78.7472ZM116.461 44.1878L115.302 40.3527L116.164 40.0922L117.323 43.9273L116.461 44.1878ZM83.2649 38.6462L83.0044 37.784L86.8395 36.6253L87.1 37.4876L83.2649 38.6462ZM114.134 36.5265L113.308 33.8141C113.209 33.4728 113.066 33.1585 112.877 32.8621L113.64 32.3951C113.865 32.7543 114.036 33.1495 114.161 33.5626L114.988 36.284L114.125 36.5445L114.134 36.5265ZM90.9261 36.32L90.6656 35.4577L94.5008 34.2991L94.7612 35.1614L90.9261 36.32ZM98.5873 33.9938L98.3269 33.1315L102.162 31.9729L102.422 32.8351L98.5873 33.9938ZM106.249 31.6676L105.988 30.8053L107.937 30.2126C108.638 30.006 109.374 29.9431 110.075 30.0419L109.949 30.9311C109.374 30.8502 108.763 30.8951 108.198 31.0658L106.249 31.6586V31.6676Z" fill="#8F8F8D"/>
<path d="M120.82 55.4542L119.961 55.7148L120.529 57.5886L121.389 57.3279L120.82 55.4542Z" fill="#8F8F8D"/>
<path d="M106.554 31.7126L105.781 31.2545C105.844 31.1378 105.916 31.039 105.979 30.9312C106.266 30.4552 106.599 29.9881 106.94 29.5391L107.649 30.0869C107.326 30.5091 107.012 30.9581 106.733 31.4072C106.67 31.506 106.608 31.6048 106.554 31.7036V31.7126Z" fill="#8F8F8D"/>
<path d="M144.958 51.5002L144.06 51.4463C144.078 51.123 144.087 50.7997 144.087 50.4674C144.087 49.4345 143.979 48.4016 143.782 47.3867L144.662 47.2071C144.877 48.2759 144.985 49.3716 144.985 50.4674C144.985 50.8087 144.976 51.1589 144.949 51.5002H144.958ZM142.65 43.3989L141.429 39.3842L142.291 39.1237L143.512 43.1385L142.65 43.3989ZM140.216 35.3695L139.704 33.6809C139.48 32.9265 139.192 32.19 138.851 31.4805L139.659 31.0943C140.019 31.8397 140.315 32.6211 140.557 33.4205L141.069 35.109L140.207 35.3695H140.216ZM136.65 28.0765C135.77 27.0436 134.755 26.1275 133.633 25.3551L134.145 24.6186C135.33 25.4359 136.408 26.4059 137.333 27.4927L136.65 28.0765ZM110.532 27.2143L109.984 26.5047C111.125 25.6335 112.373 24.906 113.712 24.3581L114.053 25.1844C112.796 25.7054 111.61 26.388 110.532 27.2143ZM117.996 23.9091L117.735 23.0468L119.936 22.3822C120.556 22.1936 121.193 22.0409 121.831 21.9242L121.993 22.8043C121.391 22.9121 120.789 23.0558 120.196 23.2355L117.996 23.9001V23.9091ZM130.013 23.4959C128.729 23.0379 127.399 22.7415 126.043 22.6247L126.115 21.7266C127.543 21.8433 128.962 22.1577 130.31 22.6427L130.004 23.4869L130.013 23.4959Z" fill="#8F8F8D"/>
<path d="M143.342 57.6509L142.533 57.2557C142.812 56.6719 143.063 56.0611 143.27 55.4414L144.123 55.7288C143.898 56.3845 143.638 57.0221 143.342 57.6419V57.6509Z" fill="#8F8F8D"/>
<path d="M153.662 38.9353L151.138 37.2108L151.641 36.4653L154.165 38.1898L153.662 38.9353ZM141.761 36.7887L141.016 36.2857L142.004 34.8487C142.282 34.4355 142.632 34.0853 143.036 33.8068L143.548 34.5433C143.234 34.7589 142.965 35.0373 142.74 35.3606L141.752 36.7977L141.761 36.7887ZM148.605 35.4774L147.186 34.5074C146.854 34.2828 146.494 34.1212 146.117 34.0314L146.324 33.1602C146.818 33.2769 147.276 33.4745 147.698 33.7619L149.117 34.7319L148.614 35.4774H148.605Z" fill="#8F8F8D"/>
<path d="M179.475 55.6522L179.174 57.3867L180.059 57.5402L180.36 55.8057L179.475 55.6522Z" fill="#8F8F8D"/>
<path d="M180.957 52.3821L180.068 52.2294L180.661 48.8074L181.55 48.9601L180.957 52.3821ZM151.534 52.3641L150.645 52.2114L151.237 48.7895L152.126 48.9422L151.534 52.3641ZM182.152 45.5382L181.262 45.3855L181.855 41.9635L182.744 42.1162L182.152 45.5382ZM152.728 45.5202L151.839 45.3675L151.947 44.7658C152.117 43.7958 152.36 42.8437 152.674 41.9186L153.528 42.206C153.231 43.0862 152.998 43.9933 152.836 44.9095L152.728 45.5112V45.5202ZM154.92 39.1344L154.138 38.6853C154.722 37.6614 155.414 36.6824 156.186 35.7753L156.869 36.3591C156.132 37.2123 155.477 38.1464 154.92 39.1254V39.1344ZM183.346 38.6943L182.457 38.5416L182.924 35.8381C182.96 35.6226 182.978 35.407 182.978 35.1915H183.876C183.876 35.4609 183.849 35.7304 183.804 35.9908L183.337 38.6943H183.346ZM159.312 34.0239L158.755 33.3233C159.68 32.5868 160.686 31.9312 161.737 31.3833L162.15 32.1827C161.153 32.7036 160.192 33.3323 159.312 34.0329V34.0239ZM181.765 32.4342C181.245 31.9581 180.598 31.6438 179.906 31.527L178.802 31.3384L178.954 30.4492L180.059 30.6379C180.921 30.7905 181.729 31.1767 182.376 31.7695L181.774 32.4342H181.765ZM165.275 30.8893L165.015 30.0271C166.147 29.6858 167.323 29.4523 168.5 29.3355L168.59 30.2337C167.467 30.3504 166.353 30.566 165.275 30.8983V30.8893ZM175.371 30.7367L173.467 30.4043C172.973 30.3145 172.47 30.2517 171.976 30.2067L172.056 29.3086C172.577 29.3535 173.098 29.4254 173.619 29.5152L175.523 29.8475L175.371 30.7367Z" fill="#8F8F8D"/>
<path d="M150.041 55.6522L149.74 57.3867L150.625 57.5402L150.926 55.8057L150.041 55.6522Z" fill="#8F8F8D"/>
<path d="M23.6992 29.2266H3.82315C1.98783 29.2266 0.5 30.7124 0.5 32.5452C0.5 34.3781 1.98783 35.8639 3.82315 35.8639H23.6992C25.5345 35.8639 27.0224 34.3781 27.0224 32.5452C27.0224 30.7124 25.5345 29.2266 23.6992 29.2266Z" fill="#A3A3A3"/>
<path d="M164.672 126.414H140.539L144.491 103.484H174.57L169.325 121.789C168.723 123.908 166.72 125.803 164.672 126.414Z" fill="#E8E8E8"/>
<path d="M144.645 102.586L148.237 81.668H180.804L174.822 102.586H144.645Z" fill="#E8E8E8"/>
<path d="M175.504 103.484H185.043L179.77 121.914C179.007 124.573 176.573 126.414 173.807 126.414H166.783C168.364 125.408 169.684 123.81 170.187 122.04L175.504 103.484Z" fill="#E8E8E8"/>
<path d="M148.389 80.7718L152.403 57.4648H180.318C181.845 57.7343 183.3 58.6504 184.351 60.0336C185.572 61.6502 185.985 63.5543 185.5 65.2518L181.063 80.7718H148.389Z" fill="#E8E8E8"/>
<path d="M181.738 81.668H191.276L185.294 102.586H175.756L181.738 81.668Z" fill="#E8E8E8"/>
<path d="M195.937 65.3775L191.536 80.7718H181.998L186.363 65.5033C186.929 63.5274 186.462 61.3359 185.07 59.4947C184.441 58.6504 183.66 57.9678 182.815 57.4648H189.974C194.096 57.4648 197.078 61.4077 195.937 65.3775Z" fill="#E8E8E8"/>
<path d="M101.093 102.586H80.4809L76.9062 81.668H99.836L101.093 102.586Z" fill="#C0C0C0"/>
<path d="M71.894 57.7433L75.8369 80.7718H50.4372L46.0363 65.3775C44.8956 61.4167 47.8775 57.4648 52 57.4648H71.8491L71.894 57.7433Z" fill="#C0C0C0"/>
<path d="M99.7812 80.7718H76.7436L72.7648 57.5547L72.7559 57.4648H98.3801L99.7812 80.7718Z" fill="#C0C0C0"/>
<path d="M56.6789 102.586L50.6973 81.668H75.9892L79.5728 102.586H56.6789Z" fill="#C0C0C0"/>
<path d="M83.6606 126.414H68.1675C65.4012 126.414 62.9672 124.573 62.2038 121.914L56.9316 103.484H79.7267L81.3074 112.726L83.6606 126.414Z" fill="#C0C0C0"/>
<path d="M102.521 126.414H84.5667L83.5787 120.648L80.6328 103.484H101.147L102.521 126.414Z" fill="#C0C0C0"/>
<path d="M122.343 103.484L121.032 126.414H103.428L102.045 103.484H122.343Z" fill="#C0C0C0"/>
<path d="M123.582 81.668L122.388 102.586H101.991L100.742 81.668H123.582Z" fill="#C0C0C0"/>
<path d="M124.974 57.4648L123.636 80.7718H100.688L99.2871 57.4648H124.974Z" fill="#C0C0C0"/>
<path d="M143.575 103.484L139.632 126.414H121.93L123.241 103.484H143.575Z" fill="#C0C0C0"/>
<path d="M147.329 81.668L143.727 102.586H123.285L124.48 81.668H147.329Z" fill="#C0C0C0"/>
<path d="M151.489 57.4648L147.483 80.7718H124.535L125.864 57.4648H151.489Z" fill="#C0C0C0"/>
<path d="M163.307 103.484L158.035 121.914C157.272 124.573 154.838 126.414 152.071 126.414H140.539L144.491 103.484H163.307Z" fill="#C0C0C0"/>
<path d="M169.541 81.668L163.56 102.586H144.645L148.237 81.668H169.541Z" fill="#C0C0C0"/>
<path d="M174.201 65.3775L169.801 80.7718H148.389L152.403 57.4648H168.238C172.36 57.4648 175.333 61.4167 174.201 65.3775Z" fill="#C0C0C0"/>
<path d="M131.89 19.7952C131.89 29.1719 125.361 37.0128 116.595 39.0516C115.751 40.4437 114.763 41.9077 113.568 43.3986C112.149 45.1769 110.703 46.6768 109.338 47.9343C108.979 48.2666 108.395 47.9612 108.476 47.4762C108.736 45.8056 108.853 43.4704 108.17 40.8029C108.009 40.1742 107.811 39.5994 107.613 39.0426C98.8385 37.0127 92.291 29.1719 92.291 19.7862C92.291 8.85576 101.156 0 112.095 0C123.035 0 131.899 8.86474 131.899 19.7862L131.89 19.7952Z" fill="#D7837F"/>
<path d="M120.116 18.9516C120.116 26.9901 117.134 31.4359 111.889 31.4359C107.264 31.4359 104.138 27.1068 104.066 19.284C104.066 11.3533 107.488 6.98828 112.293 6.98828C117.099 6.98828 120.116 11.4251 120.116 18.9606V18.9516ZM107.273 19.3199C107.273 25.4722 109.168 28.966 112.078 28.966C115.356 28.966 116.919 25.1489 116.919 19.1043C116.919 13.0598 115.428 9.45819 112.114 9.45819C109.312 9.45819 107.273 12.8801 107.273 19.3199Z" fill="white"/>
<path d="M44.6988 92.0615H27.9663C27.7777 92.0615 27.625 91.9088 27.625 91.7202C27.625 91.5316 27.7777 91.3789 27.9663 91.3789H44.6988C44.8874 91.3789 45.0401 91.5316 45.0401 91.7202C45.0401 91.9088 44.8874 92.0615 44.6988 92.0615Z" fill="#A3A3A3"/>
<path d="M45.8301 96.3545H36.3276C36.139 96.3545 35.9863 96.2018 35.9863 96.0132C35.9863 95.8246 36.139 95.6719 36.3276 95.6719H45.8301C46.0187 95.6719 46.1713 95.8246 46.1713 96.0132C46.1713 96.2018 46.0187 96.3545 45.8301 96.3545Z" fill="#A3A3A3"/>
</svg>
