<svg width="15" height="14" viewBox="0 0 15 14" fill="none" xmlns="http://www.w3.org/2000/svg">
<path d="M2.17834 10.5663C2.20514 10.3251 2.21854 10.2045 2.25503 10.0918C2.28741 9.99179 2.33315 9.89661 2.39102 9.80886C2.45625 9.70994 2.54205 9.62414 2.71366 9.45253L10.4173 1.74887C11.0617 1.10454 12.1063 1.10454 12.7507 1.74887C13.395 2.39321 13.395 3.43788 12.7507 4.08221L5.04699 11.7859C4.87539 11.9575 4.78958 12.0433 4.69067 12.1085C4.60291 12.1664 4.50774 12.2121 4.40773 12.2445C4.295 12.281 4.1744 12.2944 3.9332 12.3212L1.95898 12.5405L2.17834 10.5663Z" stroke="#191817" stroke-width="1.2" stroke-linecap="round" stroke-linejoin="round"/>
</svg>
