<svg width="17" height="16" viewBox="0 0 17 16" fill="none" xmlns="http://www.w3.org/2000/svg">
<mask id="mask0_3112_82912" style="mask-type:alpha" maskUnits="userSpaceOnUse" x="0" y="0" width="17" height="16">
<rect x="0.5" width="16" height="16" fill="#191817"/>
</mask>
<g mask="url(#mask0_3112_82912)">
<path d="M12.2692 14.1034C11.6446 14.1034 11.1167 13.8878 10.6853 13.4566C10.2541 13.0253 10.0385 12.4973 10.0385 11.8728C10.0385 11.2481 10.2541 10.7202 10.6853 10.2889C11.1167 9.8576 11.6446 9.64194 12.2692 9.64194C12.8938 9.64194 13.4218 9.8576 13.853 10.2889C14.2843 10.7202 14.5 11.2481 14.5 11.8728C14.5 12.4973 14.2843 13.0253 13.853 13.4566C13.4218 13.8878 12.8938 14.1034 12.2692 14.1034ZM12.2685 13.1034C12.6083 13.1034 12.8985 12.9834 13.1392 12.7433C13.3797 12.503 13.5 12.2131 13.5 11.8734C13.5 11.5337 13.3799 11.2434 13.1397 11.0028C12.8996 10.7622 12.6096 10.6419 12.2698 10.6419C11.9301 10.6419 11.6399 10.762 11.3993 11.0023C11.1588 11.2424 11.0385 11.5323 11.0385 11.8721C11.0385 12.2119 11.1586 12.502 11.3987 12.7426C11.6389 12.9832 11.9288 13.1034 12.2685 13.1034ZM3.5 12.3728V11.3728H8.577V12.3728H3.5ZM4.73083 8.35994C4.10617 8.35994 3.57822 8.14427 3.147 7.71294C2.71567 7.28171 2.5 6.75377 2.5 6.1291C2.5 5.50455 2.71567 4.9766 3.147 4.54527C3.57822 4.11405 4.10617 3.89844 4.73083 3.89844C5.35539 3.89844 5.88333 4.11405 6.31467 4.54527C6.74589 4.9766 6.9615 5.50455 6.9615 6.1291C6.9615 6.75377 6.74589 7.28171 6.31467 7.71294C5.88333 8.14427 5.35539 8.35994 4.73083 8.35994ZM4.73017 7.35994C5.06994 7.35994 5.36011 7.23983 5.60067 6.9996C5.84122 6.75949 5.9615 6.46955 5.9615 6.12977C5.9615 5.78999 5.84144 5.49983 5.60133 5.25927C5.36111 5.01872 5.07117 4.89844 4.7315 4.89844C4.39172 4.89844 4.1015 5.01849 3.86083 5.2586C3.62028 5.49883 3.5 5.78877 3.5 6.12844C3.5 6.46822 3.62011 6.75844 3.86033 6.9991C4.10044 7.23966 4.39039 7.35994 4.73017 7.35994ZM8.423 6.6291V5.6291H13.5V6.6291H8.423Z" fill="#191817"/>
</g>
</svg>
