<svg width="30" height="30" viewBox="0 0 30 30" fill="none" xmlns="http://www.w3.org/2000/svg">
<path d="M11.3328 15.0003L13.9995 17.667L19.9995 11.667M23.2011 5.665C23.4756 6.32904 24.0027 6.85686 24.6663 7.13242L26.9932 8.0963C27.6572 8.37137 28.1848 8.89898 28.4599 9.56307C28.7349 10.2272 28.7349 10.9733 28.4599 11.6374L27.4967 13.9627C27.2216 14.6271 27.2212 15.374 27.4976 16.0381L28.4591 18.3627C28.5954 18.6916 28.6657 19.0442 28.6657 19.4003C28.6658 19.7563 28.5957 20.1089 28.4594 20.4379C28.3232 20.7668 28.1234 21.0657 27.8716 21.3174C27.6198 21.5692 27.3209 21.7688 26.9919 21.905L24.6666 22.8681C24.0026 23.1427 23.4748 23.6697 23.1993 24.3334L22.2354 26.6604C21.9604 27.3244 21.4328 27.8521 20.7687 28.1271C20.1047 28.4022 19.3585 28.4022 18.6945 28.1271L16.3692 27.164C15.7051 26.8896 14.9593 26.8901 14.2956 27.1655L11.9687 28.128C11.305 28.4024 10.5595 28.4022 9.896 28.1274C9.23248 27.8525 8.70518 27.3255 8.42993 26.6621L7.4658 24.3344C7.19125 23.6704 6.66424 23.1426 6.00064 22.867L3.67373 21.9032C3.00996 21.6282 2.48252 21.1009 2.20735 20.4372C1.93219 19.7735 1.93182 19.0277 2.20632 18.3637L3.16946 16.0384C3.44385 15.3743 3.44329 14.6284 3.16791 13.9647L2.20614 11.636C2.06978 11.3071 1.99957 10.9546 1.99951 10.5985C1.99945 10.2424 2.06956 9.88986 2.20581 9.5609C2.34206 9.23195 2.5418 8.93306 2.7936 8.68133C3.04541 8.4296 3.34434 8.22995 3.67333 8.0938L5.99857 7.13061C6.66201 6.85629 7.18949 6.32993 7.46525 5.66707L8.42909 3.34007C8.70415 2.67599 9.23175 2.14837 9.89581 1.8733C10.5599 1.59822 11.306 1.59822 11.9701 1.8733L14.2953 2.83648C14.9594 3.11088 15.7053 3.11032 16.3689 2.83492L18.6968 1.87479C19.3608 1.59987 20.1068 1.59993 20.7707 1.87495C21.4346 2.14997 21.9621 2.67743 22.2372 3.34134L23.2014 5.66903L23.2011 5.665Z" stroke="white" stroke-width="2.4" stroke-linecap="round" stroke-linejoin="round"/>
</svg>
