<svg width="18" height="19" viewBox="0 0 18 19" fill="none" xmlns="http://www.w3.org/2000/svg">
<path d="M7.01522 16.25C7.54407 16.7168 8.23875 17 8.99959 17C9.76042 17 10.4551 16.7168 10.984 16.25M13.4996 6.5C13.4996 5.30653 13.0255 4.16193 12.1816 3.31802C11.3377 2.47411 10.1931 2 8.99959 2C7.80611 2 6.66152 2.47411 5.81761 3.31802C4.97369 4.16193 4.49959 5.30653 4.49959 6.5C4.49959 8.81764 3.91494 10.4045 3.26184 11.4541C2.71093 12.3394 2.43548 12.7821 2.44558 12.9056C2.45676 13.0423 2.48573 13.0944 2.59592 13.1762C2.69543 13.25 3.14403 13.25 4.04123 13.25H13.9579C14.8551 13.25 15.3037 13.25 15.4033 13.1762C15.5134 13.0944 15.5424 13.0423 15.5536 12.9056C15.5637 12.7821 15.2882 12.3394 14.7373 11.4541C14.0842 10.4045 13.4996 8.81764 13.4996 6.5Z" stroke="#286422" stroke-width="2" stroke-linecap="round" stroke-linejoin="round"/>
</svg>
