<svg width="76" height="75" viewBox="0 0 76 75" fill="none" xmlns="http://www.w3.org/2000/svg">
<path d="M36.2908 33.2535C36.5698 32.4605 37.1205 31.7918 37.8452 31.3658C38.57 30.9398 39.4222 30.7841 40.2508 30.9262C41.0794 31.0684 41.8309 31.4992 42.3723 32.1423C42.9137 32.7855 43.21 33.5995 43.2088 34.4402C43.2088 36.8134 39.6489 38 39.6489 38M39.6948 42.75H39.7107M39.4575 50.6667C46.8903 50.6667 52.9158 44.6412 52.9158 37.2083C52.9158 29.7755 46.8903 23.75 39.4575 23.75C32.0247 23.75 25.9992 29.7755 25.9992 37.2083C25.9992 38.7125 26.2459 40.159 26.7012 41.5096C26.8725 42.0179 26.9581 42.272 26.9736 42.4673C26.9888 42.6601 26.9773 42.7952 26.9296 42.9827C26.8813 43.1725 26.7747 43.3699 26.5614 43.7646L23.9716 48.5582C23.6022 49.242 23.4175 49.5839 23.4588 49.8477C23.4948 50.0775 23.6301 50.2799 23.8287 50.401C24.0567 50.5401 24.4432 50.5002 25.2163 50.4203L33.3246 49.5821C33.5701 49.5567 33.6929 49.544 33.8048 49.5483C33.9148 49.5525 33.9925 49.5629 34.0999 49.5876C34.209 49.6128 34.3462 49.6656 34.6207 49.7713C36.1217 50.3496 37.7526 50.6667 39.4575 50.6667Z" stroke="white" stroke-width="2.4" stroke-linecap="round" stroke-linejoin="round"/>
<circle cx="38.1665" cy="37.5" r="37" stroke="white"/>
</svg>
