<svg width="15" height="15" viewBox="0 0 15 15" fill="none" xmlns="http://www.w3.org/2000/svg">
<path d="M10.2266 3.57031H2.35156C2.23553 3.57031 2.12425 3.61641 2.0422 3.69845C1.96016 3.7805 1.91406 3.89178 1.91406 4.00781V11.8828C1.91406 11.9988 1.96016 12.1101 2.0422 12.1922C2.12425 12.2742 2.23553 12.3203 2.35156 12.3203H10.2266C10.3426 12.3203 10.4539 12.2742 10.5359 12.1922C10.618 12.1101 10.6641 11.9988 10.6641 11.8828V4.00781C10.6641 3.89178 10.618 3.7805 10.5359 3.69845C10.4539 3.61641 10.3426 3.57031 10.2266 3.57031ZM9.78906 11.4453H2.78906V4.44531H9.78906V11.4453ZM12.4141 2.25781V10.1328C12.4141 10.2488 12.368 10.3601 12.2859 10.4422C12.2039 10.5242 12.0926 10.5703 11.9766 10.5703C11.8605 10.5703 11.7493 10.5242 11.6672 10.4422C11.5852 10.3601 11.5391 10.2488 11.5391 10.1328V2.69531H4.10156C3.98553 2.69531 3.87425 2.64922 3.7922 2.56717C3.71016 2.48512 3.66406 2.37384 3.66406 2.25781C3.66406 2.14178 3.71016 2.0305 3.7922 1.94845C3.87425 1.86641 3.98553 1.82031 4.10156 1.82031H11.9766C12.0926 1.82031 12.2039 1.86641 12.2859 1.94845C12.368 2.0305 12.4141 2.14178 12.4141 2.25781Z" fill="#191817"/>
</svg>
