<svg width="19" height="19" viewBox="0 0 19 19" fill="none" xmlns="http://www.w3.org/2000/svg">
<path d="M7.25 7.25H7.2575M11.75 11.75H11.7575M12.5 6.5L6.5 12.5M6.00033 3.36402C6.6032 3.31591 7.17554 3.07884 7.63585 2.68656C8.71004 1.77115 10.29 1.77115 11.3641 2.68656C11.8245 3.07884 12.3968 3.31591 12.9997 3.36402C14.4065 3.47629 15.5237 4.59346 15.636 6.00033C15.6841 6.6032 15.9212 7.17554 16.3134 7.63585C17.2289 8.71004 17.2289 10.29 16.3134 11.3641C15.9212 11.8245 15.6841 12.3968 15.636 12.9997C15.5237 14.4065 14.4065 15.5237 12.9997 15.636C12.3968 15.6841 11.8245 15.9212 11.3641 16.3134C10.29 17.2289 8.71004 17.2289 7.63585 16.3134C7.17554 15.9212 6.6032 15.6841 6.00033 15.636C4.59346 15.5237 3.47629 14.4065 3.36402 12.9997C3.31591 12.3968 3.07884 11.8245 2.68656 11.3641C1.77115 10.29 1.77115 8.71004 2.68656 7.63585C3.07884 7.17554 3.31591 6.6032 3.36402 6.00033C3.47629 4.59346 4.59346 3.47629 6.00033 3.36402ZM7.625 7.25C7.625 7.45711 7.45711 7.625 7.25 7.625C7.04289 7.625 6.875 7.45711 6.875 7.25C6.875 7.04289 7.04289 6.875 7.25 6.875C7.45711 6.875 7.625 7.04289 7.625 7.25ZM12.125 11.75C12.125 11.9571 11.9571 12.125 11.75 12.125C11.5429 12.125 11.375 11.9571 11.375 11.75C11.375 11.5429 11.5429 11.375 11.75 11.375C11.9571 11.375 12.125 11.5429 12.125 11.75Z" stroke="#A07782" stroke-width="1.2" stroke-linecap="round" stroke-linejoin="round"/>
</svg>
