<svg width="101" height="95" viewBox="0 0 101 95" fill="none" xmlns="http://www.w3.org/2000/svg">
<path d="M97.7148 80.7373V88.5874L89.3611 80.7373H28.8945V44.3828H97.7148V80.7373Z" fill="#E8E8E8"/>
<path d="M87.5966 49.2125H8.35468L-0.00390625 56.7478V49.2125V15.9961H87.5966V49.2125Z" fill="#C0C0C0"/>
<path d="M18.0496 40.6196L15.9091 39.4961L13.7734 40.6196" stroke="white" stroke-width="0.726412" stroke-miterlimit="10"/>
<path d="M11.2421 41.9505L9.10156 43.074L9.5132 40.6914" stroke="white" stroke-width="0.726412" stroke-miterlimit="10"/>
<path d="M9.99394 37.8765L10.4056 35.4939L8.67188 33.8086" stroke="white" stroke-width="0.726412" stroke-miterlimit="10"/>
<path d="M6.6273 31.8191L4.89844 30.129L7.29075 29.7852" stroke="white" stroke-width="0.726412" stroke-miterlimit="10"/>
<path d="M10.1133 29.3728L12.5056 29.0241L13.571 26.8594" stroke="white" stroke-width="0.726412" stroke-miterlimit="10"/>
<path d="M14.8359 24.2975L15.9062 22.1328L16.9764 24.2975" stroke="white" stroke-width="0.726412" stroke-miterlimit="10"/>
<path d="M18.2422 26.8594L19.3124 29.0241L21.6999 29.3728" stroke="white" stroke-width="0.726412" stroke-miterlimit="10"/>
<path d="M24.5273 29.7852L26.9197 30.129L25.186 31.8191" stroke="white" stroke-width="0.726412" stroke-miterlimit="10"/>
<path d="M23.139 33.8086L21.4102 35.4939L21.8169 37.8765" stroke="white" stroke-width="0.726412" stroke-miterlimit="10"/>
<path d="M22.3031 40.6914L22.7099 43.074L20.5742 41.9505" stroke="white" stroke-width="0.726412" stroke-miterlimit="10"/>
<path d="M45.9324 40.6196L43.7967 39.4961L41.6562 40.6196" stroke="white" stroke-width="0.726412" stroke-miterlimit="10"/>
<path d="M39.1278 41.9505L36.9922 43.074L37.399 40.6914" stroke="white" stroke-width="0.726412" stroke-miterlimit="10"/>
<path d="M37.8807 37.8765L38.2875 35.4939L36.5586 33.8086" stroke="white" stroke-width="0.726412" stroke-miterlimit="10"/>
<path d="M34.515 31.8191L32.7812 30.129L35.1736 29.7852" stroke="white" stroke-width="0.726412" stroke-miterlimit="10"/>
<path d="M37.9961 29.3728L40.3884 29.0241L41.4587 26.8594" stroke="white" stroke-width="0.726412" stroke-miterlimit="10"/>
<path d="M42.7227 24.2975L43.7929 22.1328L44.8583 24.2975" stroke="white" stroke-width="0.726412" stroke-miterlimit="10"/>
<path d="M46.125 26.8594L47.1952 29.0241L49.5876 29.3728" stroke="white" stroke-width="0.726412" stroke-miterlimit="10"/>
<path d="M52.4102 29.7852L54.8025 30.129L53.0736 31.8191" stroke="white" stroke-width="0.726412" stroke-miterlimit="10"/>
<path d="M51.0267 33.8086L49.293 35.4939L49.7046 37.8765" stroke="white" stroke-width="0.726412" stroke-miterlimit="10"/>
<path d="M50.1859 40.6914L50.5975 43.074L48.457 41.9505" stroke="white" stroke-width="0.726412" stroke-miterlimit="10"/>
<path d="M73.824 40.6196L71.6835 39.4961L69.543 40.6196" stroke="white" stroke-width="0.726412" stroke-miterlimit="10"/>
<path d="M67.0194 41.9505L64.8789 43.074L65.2857 40.6914" stroke="white" stroke-width="0.726412" stroke-miterlimit="10"/>
<path d="M65.7713 37.8765L66.1781 35.4939L64.4492 33.8086" stroke="white" stroke-width="0.726412" stroke-miterlimit="10"/>
<path d="M62.4046 31.8191L60.6758 30.129L63.0633 29.7852" stroke="white" stroke-width="0.726412" stroke-miterlimit="10"/>
<path d="M65.8906 29.3728L68.2781 29.0241L69.3483 26.8594" stroke="white" stroke-width="0.726412" stroke-miterlimit="10"/>
<path d="M70.6133 24.2975L71.6835 22.1328L72.7538 24.2975" stroke="white" stroke-width="0.726412" stroke-miterlimit="10"/>
<path d="M74.0195 26.8594L75.0898 29.0241L77.4773 29.3728" stroke="white" stroke-width="0.726412" stroke-miterlimit="10"/>
<path d="M80.3047 29.7852L82.6922 30.129L80.9633 31.8191" stroke="white" stroke-width="0.726412" stroke-miterlimit="10"/>
<path d="M78.9164 33.8086L77.1875 35.4939L77.5943 37.8765" stroke="white" stroke-width="0.726412" stroke-miterlimit="10"/>
<path d="M78.0814 40.6914L78.4881 43.074L76.3477 41.9505" stroke="white" stroke-width="0.726412" stroke-miterlimit="10"/>
<path d="M91.6117 54.3242H35V56.9006H91.6117V54.3242Z" fill="white"/>
<path d="M91.6117 62.2188H35V64.7951H91.6117V62.2188Z" fill="white"/>
<path d="M78.5557 70.1133H35V72.6896H78.5557V70.1133Z" fill="white"/>
<path d="M88.8183 0.0234375C82.1062 0.0234375 76.6484 5.48121 76.6484 12.1933C76.6484 18.9053 82.1062 24.3631 88.8183 24.3631C95.5303 24.3631 100.988 18.9053 100.988 12.1933C100.988 5.48121 95.5303 0.0234375 88.8183 0.0234375ZM79.6945 12.1933C79.6945 7.16165 83.7866 3.06468 88.8231 3.06468C90.4745 3.06468 92.0242 3.51506 93.3608 4.28506L82.0917 18.3339C80.6098 16.7115 79.6994 14.5614 79.6994 12.1933H79.6945ZM88.8183 21.3218C87.2492 21.3218 85.7673 20.9247 84.4743 20.2225L95.7047 6.227C97.0945 7.82995 97.942 9.91233 97.942 12.1981C97.942 17.2297 93.8499 21.3267 88.8134 21.3267L88.8183 21.3218Z" fill="#D7837F"/>
<path d="M68.7367 91.6289H52.8477" stroke="#A3A3A3" stroke-width="0.484275" stroke-miterlimit="10"/>
<path d="M59.5804 94.7344H49.5898" stroke="#A3A3A3" stroke-width="0.484275" stroke-miterlimit="10"/>
<path d="M13.6914 3.22656H26.6651" stroke="#A3A3A3" stroke-width="0.484275" stroke-miterlimit="10"/>
<path d="M12.0664 6.82812H23.6454" stroke="#A3A3A3" stroke-width="0.484275" stroke-miterlimit="10"/>
</svg>
