<svg width="20" height="18" viewBox="0 0 20 18" fill="none" xmlns="http://www.w3.org/2000/svg">
<path d="M8.67746 16.9602L9.81818 18L10.9589 16.9602C12.6788 15.3843 14.0972 14.0301 15.214 12.8976C16.3311 11.765 17.2172 10.757 17.8724 9.87358C18.5277 8.99035 18.9854 8.18458 19.2457 7.45627C19.5061 6.72814 19.6364 5.98926 19.6364 5.23964C19.6364 3.75246 19.1418 2.50734 18.1528 1.5043C17.1636 0.501433 15.9356 0 14.4689 0C13.5667 0 12.714 0.213952 11.911 0.641856C11.108 1.06976 10.4104 1.68341 9.81818 2.4828C9.22599 1.68341 8.52838 1.06976 7.72536 0.641856C6.92233 0.213952 6.0697 0 5.16746 0C3.70077 0 2.4728 0.501433 1.48358 1.5043C0.494526 2.50734 0 3.75246 0 5.23964C0 5.98926 0.13022 6.72814 0.39066 7.45627C0.650928 8.18458 1.10868 8.99035 1.76391 9.87358C2.41915 10.757 3.30692 11.765 4.42722 12.8976C5.54753 14.0301 6.96428 15.3843 8.67746 16.9602Z" fill="#842229"/>
</svg>
