<svg width="18" height="17" viewBox="0 0 18 17" fill="none" xmlns="http://www.w3.org/2000/svg">
<path d="M9.00018 16.7503L7.9545 15.7972C6.38405 14.3525 5.08534 13.1112 4.05837 12.0731C3.0314 11.0348 2.2176 10.1108 1.61695 9.30096C1.01631 8.49132 0.596696 7.75268 0.358112 7.08505C0.119371 6.41758 0 5.74026 0 5.0531C0 3.68982 0.453325 2.54844 1.35997 1.62897C2.26678 0.709656 3.39244 0.25 4.73694 0.25C5.564 0.25 6.3456 0.446127 7.08172 0.83838C7.81784 1.23063 8.45732 1.79316 9.00018 2.52595C9.54303 1.79316 10.1825 1.23063 10.9186 0.83838C11.6548 0.446127 12.4364 0.25 13.2634 0.25C14.6079 0.25 15.7336 0.709656 16.6404 1.62897C17.547 2.54844 18.0004 3.68982 18.0004 5.0531C18.0004 5.74026 17.881 6.41758 17.6422 7.08505C17.4037 7.75268 16.984 8.49132 16.3834 9.30096C15.7828 10.1108 14.9705 11.0348 13.9465 12.0731C12.9227 13.1112 11.6225 14.3525 10.0459 15.7972L9.00018 16.7503ZM9.00018 14.8034C10.516 13.4204 11.7634 12.235 12.7424 11.2472C13.7213 10.2595 14.495 9.40143 15.0635 8.67296C15.6319 7.94449 16.0266 7.29759 16.2477 6.73226C16.4687 6.1671 16.5793 5.60738 16.5793 5.0531C16.5793 4.09248 16.2635 3.29196 15.6319 2.65155C15.0003 2.01114 14.2108 1.69093 13.2634 1.69093C12.5153 1.69093 11.8239 1.90611 11.1891 2.33647C10.5545 2.76698 10.052 3.36585 9.68159 4.13307H8.31877C7.94218 3.35961 7.43809 2.75922 6.8065 2.3319C6.17491 1.90459 5.48506 1.69093 4.73694 1.69093C3.79555 1.69093 3.00756 2.01114 2.37297 2.65155C1.73838 3.29196 1.42108 4.09248 1.42108 5.0531C1.42108 5.60738 1.53161 6.1671 1.75267 6.73226C1.97372 7.29759 2.36847 7.94449 2.9369 8.67296C3.50533 9.40143 4.27903 10.258 5.258 11.2426C6.23697 12.2272 7.48436 13.4142 9.00018 14.8034Z" fill="white"/>
</svg>
