<svg width="22" height="14" viewBox="0 0 22 14" fill="none" xmlns="http://www.w3.org/2000/svg">
<path d="M5.5 10.6584C5.5 8.49053 7.49565 5.90039 10.7507 5.90039C13.2041 5.90039 14.3 7.25186 14.3 8.81428C14.3 10.9961 12.2715 13.6004 9.01672 13.6004C6.56326 13.6004 5.5 12.235 5.5 10.6584ZM8.95129 13.2909C10.7014 13.2909 12.2063 10.0251 12.2063 7.96962C12.2063 6.97014 11.7973 6.1959 10.8159 6.1959C9.06574 6.1959 7.57711 9.46178 7.57711 11.5031C7.57711 12.5306 8.00249 13.2909 8.95129 13.2909Z" fill="#191817"/>
<path d="M7.20752 0.77795C6.67431 0.539369 6.1211 0.400391 5.59083 0.400391C3.92323 0.400391 2.59184 1.70998 2.15315 3.94117L1.94852 5.00823H0.851531C0.813794 5.19934 0.94555 5.38003 1.12252 5.38003H1.87369C1.87451 5.38003 1.87516 5.38093 1.875 5.38183C1.38083 7.946 0.886504 10.51 0.392339 13.0741C0.259445 13.1216 0 13.4377 0 13.6004H2.63007C2.63007 13.4456 2.38022 13.1342 2.25741 13.0808C2.7493 10.5139 3.24135 7.94689 3.73324 5.38003H5.05909C5.25656 5.38003 5.42524 5.22308 5.45907 5.00823H3.77683L3.93786 2.87412C4.05498 1.49981 4.4644 0.772196 5.13733 0.772196C5.50299 0.772196 5.72258 0.982371 5.92737 1.45126C6.2052 2.09797 6.49783 2.45359 6.93669 2.45359C6.94173 2.45359 6.94693 2.45359 6.95198 2.45359C7.79407 2.43867 7.98845 1.1271 7.20768 0.77795H7.20752Z" fill="#191817"/>
<path d="M21.9993 5.44115C21.9982 5.06302 21.6416 4.77432 21.274 4.86958C19.9086 5.2238 18.4274 6.86916 17.5908 9.06583L18.4857 6.11236C18.6809 5.23785 18.4371 4.80078 17.7701 4.80078C16.7452 4.80078 15.0968 6.12404 14.2998 7.66209C14.476 7.73728 14.6971 7.66282 14.7981 7.50077C15.1435 6.94727 15.6503 6.47406 16.149 6.20926C16.2643 6.14795 16.3985 6.25416 16.3712 6.38135L15.4765 10.5327L14.9939 13.0535C14.8188 13.084 14.502 13.4177 14.502 13.6008H17.4665C17.4665 13.4203 17.1537 13.0876 16.9823 13.0542L17.3312 11.5691C17.8515 9.0755 18.7787 7.56975 19.7062 6.93814C20.0151 6.72773 20.3081 6.6467 20.7635 6.58191C21.6905 6.43628 21.9998 5.93425 21.9998 5.44845V5.44115H21.9993Z" fill="#191817"/>
</svg>
