<svg width="70" height="19" viewBox="0 0 70 19" fill="none" xmlns="http://www.w3.org/2000/svg">
<path d="M11.666 13.0982C11.666 10.5395 13.6932 7.48242 16.9997 7.48242C19.4919 7.48242 20.6051 9.07752 20.6051 10.9216C20.6051 13.4968 18.5446 16.5705 15.2383 16.5705C12.7461 16.5705 11.666 14.959 11.666 13.0982ZM15.1719 16.2053C16.9497 16.2053 18.4783 12.3507 18.4783 9.92468C18.4783 8.74501 18.0629 7.8312 17.0659 7.8312C15.2881 7.8312 13.776 11.6858 13.776 14.0951C13.776 15.3079 14.2081 16.2053 15.1719 16.2053Z" fill="#191817"/>
<path d="M13.3574 2.75066C12.7222 2.49353 12.0632 2.34375 11.4315 2.34375C9.44498 2.34375 7.85899 3.75516 7.33639 6.15982L7.09263 7.30983H5.78586C5.74091 7.51581 5.89786 7.71055 6.10868 7.71055H7.0035C7.00447 7.71055 7.00524 7.71152 7.00505 7.71248C6.41638 10.476 5.82752 13.2393 5.23885 16.0029C5.08054 16.054 4.77148 16.3947 4.77148 16.57H7.90452C7.90452 16.4032 7.60689 16.0676 7.4606 16.01C8.04655 13.2436 8.6327 10.477 9.21866 7.71055H10.7981C11.0333 7.71055 11.2342 7.54139 11.2745 7.30983H9.27059L9.46242 5.00981C9.60193 3.52864 10.0896 2.74446 10.8913 2.74446C11.3269 2.74446 11.5884 2.97098 11.8324 3.47632C12.1634 4.17331 12.5119 4.55658 13.0347 4.55658C13.0407 4.55658 13.0469 4.55658 13.0529 4.55658C14.0561 4.5405 14.2874 3.12696 13.3574 2.75066Z" fill="#191817"/>
<path d="M29.8961 7.90649C29.8949 7.50501 29.518 7.19847 29.1295 7.29961C27.6865 7.67572 26.1211 9.42273 25.2369 11.7551L26.1827 8.61917C26.3891 7.69064 26.1314 7.22656 25.4264 7.22656C24.3433 7.22656 22.6011 8.63158 21.7588 10.2647C21.945 10.3445 22.1787 10.2654 22.2855 10.0934C22.6505 9.50566 23.1861 9.00322 23.7131 8.72206C23.835 8.65696 23.9769 8.76973 23.948 8.90479L23.0024 13.3126L22.4924 15.9891C22.3073 16.0215 21.9725 16.3759 21.9725 16.5703H25.1056C25.1056 16.3786 24.775 16.0254 24.5938 15.9899L24.9626 14.413C25.5125 11.7654 26.4924 10.1666 27.4726 9.49598C27.7991 9.27256 28.1088 9.18653 28.5901 9.11774C29.5698 8.96311 29.8967 8.43006 29.8967 7.91425V7.90649H29.8961Z" fill="#191817"/>
<path d="M42.2005 16.5732H43.8249C43.8249 16.4883 43.5704 16.227 43.4908 16.2093V9.98297C43.4908 8.22317 42.6022 7.16016 41.1733 7.16016C39.9013 7.16016 38.6813 8.04878 37.9147 9.46038C37.758 8.01409 36.8866 7.16016 35.6147 7.16016C34.3428 7.16016 33.1577 8.04878 32.3912 9.4255C32.3912 8.64132 32.4433 7.82246 32.5307 7.16035C32.5307 7.16035 31.6074 7.16035 31.2995 7.16035C31.2962 7.16035 31.2937 7.16306 31.2943 7.16636C31.3981 7.89706 31.4328 8.76591 31.4328 9.68689V13.9909L31.4278 16.1279C31.4278 16.1326 31.4303 16.1367 31.4307 16.1413C31.3346 16.1518 31.0645 16.4465 31.0645 16.5734H32.7576C32.7576 16.4463 32.4683 16.1618 32.3718 16.152L32.3914 13.9911V9.96301C33.0882 8.67348 34.0991 7.66589 35.1791 7.66589C36.2943 7.66589 36.9914 8.55451 36.9914 9.98336L36.9752 16.2913H37.9471L37.9496 9.97445C38.6468 8.66748 39.6399 7.66589 40.7377 7.66589C41.8529 7.66589 42.5499 8.55451 42.5499 9.98336L42.5317 16.2103C42.4536 16.2291 42.2007 16.4897 42.2007 16.5736L42.2005 16.5732Z" fill="#191817"/>
<path d="M52.2714 16.2144L52.2941 9.49553C52.2941 8.57223 52.3282 7.90857 52.4336 7.19551H51.2137C51.3185 7.92737 51.3532 8.57223 51.3532 9.49553V13.6513C50.6386 14.8709 49.5411 15.8205 48.4259 15.8205C47.2234 15.8205 46.5264 15.0015 46.5264 13.503V9.49534C46.5264 8.57203 46.5615 7.92717 46.6659 7.19531H45.4287C45.5335 7.92717 45.5682 8.57203 45.5682 9.49534V13.4856C45.5682 15.35 46.4919 16.3259 47.938 16.3259C49.2797 16.3259 50.5518 15.507 51.3532 14.2L51.354 16.2148C51.2786 16.2323 51.0273 16.4906 51.0273 16.5714H52.6012C52.6012 16.4894 52.3486 16.2305 52.2714 16.2141V16.2144Z" fill="#191817"/>
<path d="M54.5066 16.2089C54.4296 16.2281 54.1777 16.4883 54.1777 16.5711H55.7969C55.7969 16.4895 55.5467 16.23 55.4717 16.2097L55.47 14.0189V4.92308C55.47 3.99977 55.5047 3.35491 55.6095 2.62305H54.3723C54.4767 3.35472 54.5118 3.99958 54.5118 4.92308V14.0189L54.5069 16.2089H54.5066Z" fill="#191817"/>
<path d="M3.48027 18.3245H2.03515C1.81813 18.3245 1.64219 18.1486 1.64219 17.9316V1.06891C1.64219 0.851886 1.81813 0.675945 2.03515 0.675945H3.48027C3.67268 0.675945 3.82886 0.596112 3.82886 0.4037C3.82886 0.402925 3.82828 0.402344 3.8277 0.402344H0.165478C0.0742132 0.402344 0 0.476363 0 0.567822V18.4327C0 18.5239 0.0740195 18.5981 0.165478 18.5981H3.8277C3.8277 18.5981 3.82886 18.5976 3.82886 18.597C3.82886 18.4046 3.67288 18.3245 3.48027 18.3245Z" fill="#191817"/>
<path d="M62.9952 16.5709H64.5977C64.5977 16.4862 64.3425 16.2252 64.2624 16.2093V9.81842C64.2624 8.04796 63.1049 7.17969 61.5386 7.17969C60.4003 7.17969 59.1617 7.69395 58.1113 8.38241L59.0534 8.74592C59.377 8.36826 60.2704 7.28762 61.7543 7.41066C62.6702 7.48662 63.4013 8.2613 63.3767 9.17996C63.336 10.6966 61.7423 11.0837 60.3642 11.5207C58.798 12.0313 57.3682 12.593 57.3682 14.1422C57.3682 15.4869 58.5085 16.3211 59.8366 16.3211C61.1986 16.3211 62.7476 15.5627 63.3434 13.2814V16.2066C63.2572 16.217 62.9956 16.4815 62.9956 16.5707L62.9952 16.5709ZM60.2107 15.8276C59.1723 15.8276 58.3043 15.1637 58.3043 13.9891C58.3043 12.6782 59.4277 12.1845 60.6704 11.742C61.3571 11.5131 62.031 11.3033 62.5563 10.9766C62.8995 10.763 63.3432 10.9958 63.3432 11.4V11.4186C63.3432 14.534 61.6068 15.8276 60.2109 15.8276H60.2107Z" fill="#191817"/>
<path d="M66.1113 18.3245H67.5564C67.7734 18.3245 67.9494 18.1486 67.9494 17.9316V1.06891C67.9494 0.851886 67.7734 0.675945 67.5564 0.675945H66.1113C65.9189 0.675945 65.7627 0.596112 65.7627 0.4037C65.7627 0.402925 65.7633 0.402344 65.7639 0.402344H69.4261C69.5173 0.402344 69.5916 0.476363 69.5916 0.567822V18.4327C69.5916 18.5239 69.5175 18.5981 69.4261 18.5981H65.7639C65.7639 18.5981 65.7627 18.5976 65.7627 18.597C65.7627 18.4046 65.9187 18.3245 66.1113 18.3245Z" fill="#191817"/>
</svg>
