<svg width="20" height="20" viewBox="0 0 20 20" fill="none" xmlns="http://www.w3.org/2000/svg">
<g clip-path="url(#clip0_4604_110956)">
<path d="M19.7623 10.1858C19.7623 9.36645 19.6958 8.76851 19.552 8.14844H10.1953V11.8468H15.6874C15.5768 12.7658 14.9788 14.15 13.65 15.08L13.6314 15.2039L16.5898 17.4957L16.7948 17.5161C18.6771 15.7777 19.7623 13.2198 19.7623 10.1858Z" fill="#4285F4"/>
<path d="M10.1947 19.9322C12.8854 19.9322 15.1442 19.0463 16.7941 17.5183L13.6494 15.0822C12.8079 15.669 11.6784 16.0787 10.1947 16.0787C7.55932 16.0787 5.3226 14.3403 4.52527 11.9375L4.4084 11.9474L1.33222 14.3281L1.29199 14.4399C2.93077 17.6954 6.29695 19.9322 10.1947 19.9322Z" fill="#34A853"/>
<path d="M4.52575 11.9383C4.31537 11.3182 4.19361 10.6538 4.19361 9.9673C4.19361 9.28073 4.31537 8.61638 4.51468 7.99631L4.50911 7.86424L1.39438 5.44531L1.29247 5.49379C0.617049 6.8447 0.229492 8.36173 0.229492 9.9673C0.229492 11.5729 0.617049 13.0898 1.29247 14.4407L4.52575 11.9383Z" fill="#FBBC05"/>
<path d="M10.1947 3.85336C12.066 3.85336 13.3283 4.66168 14.048 5.33717L16.8605 2.59107C15.1332 0.985496 12.8854 0 10.1947 0C6.29695 0 2.93077 2.23672 1.29199 5.49214L4.51421 7.99466C5.3226 5.59183 7.55932 3.85336 10.1947 3.85336Z" fill="#EB4335"/>
</g>
<defs>
<clipPath id="clip0_4604_110956">
<rect width="20" height="20" fill="white"/>
</clipPath>
</defs>
</svg>
