<svg width="20" height="20" viewBox="0 0 20 20" fill="none" xmlns="http://www.w3.org/2000/svg">
<circle cx="10.292" cy="10.2578" r="9.5" fill="#773D4C"/>
<path d="M10.5 15.9054L9.83682 15.3192C8.84082 14.4308 8.01717 13.6673 7.36585 13.0289C6.71454 12.3904 6.19842 11.8221 5.81748 11.3241C5.43655 10.8262 5.17042 10.3719 5.01911 9.96131C4.8677 9.55082 4.79199 9.13428 4.79199 8.71168C4.79199 7.87327 5.0795 7.17134 5.6545 6.60587C6.22961 6.0405 6.94351 5.75781 7.79621 5.75781C8.32074 5.75781 8.81644 5.87843 9.28329 6.11966C9.75015 6.36089 10.1557 6.70684 10.5 7.1575C10.8443 6.70684 11.2499 6.36089 11.7167 6.11966C12.1836 5.87843 12.6793 5.75781 13.2038 5.75781C14.0565 5.75781 14.7704 6.0405 15.3455 6.60587C15.9205 7.17134 16.208 7.87327 16.208 8.71168C16.208 9.13428 16.1323 9.55082 15.9809 9.96131C15.8296 10.3719 15.5635 10.8262 15.1825 11.3241C14.8016 11.8221 14.2864 12.3904 13.637 13.0289C12.9877 13.6673 12.1631 14.4308 11.1632 15.3192L10.5 15.9054ZM10.5 14.708C11.4613 13.8575 12.2525 13.1285 12.8733 12.521C13.4942 11.9136 13.9849 11.3859 14.3454 10.9379C14.7059 10.4899 14.9563 10.092 15.0964 9.74435C15.2366 9.39678 15.3067 9.05256 15.3067 8.71168C15.3067 8.12091 15.1065 7.6286 14.7059 7.23475C14.3053 6.8409 13.8046 6.64397 13.2038 6.64397C12.7293 6.64397 12.2908 6.77631 11.8882 7.04097C11.4858 7.30574 11.1671 7.67404 10.9322 8.14587H10.0678C9.82901 7.6702 9.50931 7.30096 9.10875 7.03817C8.70819 6.77537 8.27067 6.64397 7.79621 6.64397C7.19917 6.64397 6.69942 6.8409 6.29695 7.23475C5.89449 7.6286 5.69326 8.12091 5.69326 8.71168C5.69326 9.05256 5.76335 9.39678 5.90355 9.74435C6.04375 10.092 6.2941 10.4899 6.65461 10.9379C7.01511 11.3859 7.5058 11.9126 8.12667 12.5182C8.74754 13.1237 9.53865 13.8537 10.5 14.708Z" fill="white"/>
</svg>
