<svg width="45" height="45" viewBox="0 0 45 45" fill="none" xmlns="http://www.w3.org/2000/svg">
<g clip-path="url(#clip0_10819_263094)">
<path d="M26.7188 5.625H30.9375C31.3105 5.625 31.6681 5.47684 31.9319 5.21312C32.1956 4.9494 32.3438 4.59171 32.3438 4.21875C32.3438 3.84579 32.4919 3.4881 32.7556 3.22438C33.0194 2.96066 33.377 2.8125 33.75 2.8125C34.123 2.8125 34.4806 2.96066 34.7444 3.22438C35.0081 3.4881 35.1562 3.84579 35.1562 4.21875C35.1562 5.33763 34.7118 6.41069 33.9206 7.20186C33.1294 7.99303 32.0564 8.4375 30.9375 8.4375H26.7188C26.3458 8.4375 25.9881 8.58566 25.7244 8.84938C25.4607 9.1131 25.3125 9.47079 25.3125 9.84375C25.3125 10.2167 25.1643 10.5744 24.9006 10.8381C24.6369 11.1018 24.2792 11.25 23.9062 11.25C23.5333 11.25 23.1756 11.1018 22.9119 10.8381C22.6482 10.5744 22.5 10.2167 22.5 9.84375C22.5 8.72487 22.9445 7.65181 23.7356 6.86064C24.5268 6.06947 25.5999 5.625 26.7188 5.625ZM18.2812 11.25C18.6542 11.25 19.0119 11.1018 19.2756 10.8381C19.5393 10.5744 19.6875 10.2167 19.6875 9.84375C19.6875 7.97895 20.4283 6.19052 21.7469 4.87191C23.0655 3.55329 24.8539 2.8125 26.7188 2.8125H28.125C28.498 2.8125 28.8556 2.66434 29.1194 2.40062C29.3831 2.1369 29.5312 1.77921 29.5312 1.40625C29.5312 1.03329 29.3831 0.675604 29.1194 0.411881C28.8556 0.148158 28.498 0 28.125 0L26.7188 0C24.1089 0.0027918 21.6067 1.04079 19.7613 2.88625C17.9158 4.73171 16.8778 7.23388 16.875 9.84375C16.875 10.2167 17.0232 10.5744 17.2869 10.8381C17.5506 11.1018 17.9083 11.25 18.2812 11.25ZM43.5938 37.9688C43.5938 38.3417 43.4456 38.6994 43.1819 38.9631C42.9181 39.2268 42.5605 39.375 42.1875 39.375H2.8125C2.43954 39.375 2.08185 39.2268 1.81813 38.9631C1.55441 38.6994 1.40625 38.3417 1.40625 37.9688C1.40625 37.5958 1.55441 37.2381 1.81813 36.9744C2.08185 36.7107 2.43954 36.5625 2.8125 36.5625H5.75508C8.17559 31.6705 10.9371 24.4881 11.2254 16.759C11.2514 16.0323 11.5595 15.3444 12.0842 14.841C12.6089 14.3376 13.309 14.0584 14.0361 14.0625H29.5629C30.2874 14.0618 30.9842 14.3406 31.5082 14.841C32.0321 15.3414 32.3428 16.0247 32.3754 16.7484C32.7445 25.1578 36.566 32.9854 38.5787 36.5625H42.1875C42.5605 36.5625 42.9181 36.7107 43.1819 36.9744C43.4456 37.2381 43.5938 37.5958 43.5938 37.9688ZM29.5629 16.875H26.7504C27.0615 24.5602 29.8072 31.6969 32.2154 36.5625H35.3795C33.1664 32.3578 29.9145 24.8977 29.5629 16.875ZM8.87695 36.5625H29.0918C26.7188 31.4807 24.2174 24.4494 23.9326 16.875C23.8739 16.8754 23.8151 16.8719 23.7568 16.8645L14.0361 16.875C13.7531 24.4441 11.2605 31.4771 8.87695 36.5625Z" fill="black"/>
</g>
<defs>
<clipPath id="clip0_10819_263094">
<rect width="45" height="45" fill="white"/>
</clipPath>
</defs>
</svg>
