<svg width="75" height="75" viewBox="0 0 75 75" fill="none" xmlns="http://www.w3.org/2000/svg">
<circle cx="37.5" cy="37.5" r="37.5" fill="#F4EEE2"/>
<path d="M35.0026 32.9948C33.5155 32.9708 32.063 33.4449 30.8763 34.3415C29.6896 35.2381 28.8369 36.5057 28.4536 37.9428C28.0704 39.3799 28.1787 40.9039 28.7614 42.2724C29.3441 43.6408 30.3677 44.7751 31.6693 45.4948M35.0026 22.9948V26.3281M26.0026 48.6615L23.6693 50.9948M21.6693 39.6615H18.3359M26.0026 30.6615L23.6693 28.3281M48.3359 42.22V24.6615C48.3359 22.8205 46.8436 21.3281 45.0026 21.3281C43.1617 21.3281 41.6693 22.8205 41.6693 24.6615V42.22C39.6766 43.3727 38.3359 45.5272 38.3359 47.9948C38.3359 51.6767 41.3207 54.6615 45.0026 54.6615C48.6845 54.6615 51.6693 51.6767 51.6693 47.9948C51.6693 45.5272 50.3286 43.3727 48.3359 42.22Z" stroke="#191817" stroke-width="2.5" stroke-linecap="round" stroke-linejoin="round"/>
</svg>
