<svg width="19" height="20" viewBox="0 0 19 20" fill="none" xmlns="http://www.w3.org/2000/svg">
<path d="M9.489 15.6152C9.7745 15.6152 10.0157 15.5168 10.2125 15.3198C10.4093 15.1226 10.5078 14.8812 10.5078 14.5955C10.5078 14.31 10.4092 14.0688 10.212 13.872C10.0148 13.6753 9.7735 13.577 9.488 13.577C9.2025 13.577 8.96133 13.6756 8.7645 13.8728C8.56767 14.0699 8.46925 14.3113 8.46925 14.5968C8.46925 14.8822 8.56783 15.1234 8.765 15.3203C8.96217 15.5169 9.2035 15.6152 9.489 15.6152ZM8.78075 12.0345H10.1885C10.2013 11.5423 10.2734 11.1491 10.4047 10.8548C10.5363 10.5606 10.8552 10.1706 11.3615 9.68475C11.8013 9.24492 12.1382 8.83875 12.372 8.46625C12.606 8.09392 12.723 7.65417 12.723 7.147C12.723 6.28617 12.4137 5.61375 11.7952 5.12975C11.1766 4.64592 10.4448 4.404 9.6 4.404C8.76533 4.404 8.07467 4.62675 7.528 5.07225C6.98117 5.51775 6.59108 6.04242 6.35775 6.64625L7.64225 7.1615C7.76408 6.8295 7.97242 6.50608 8.26725 6.19125C8.56208 5.87658 8.99992 5.71925 9.58075 5.71925C10.1718 5.71925 10.6086 5.88108 10.8913 6.20475C11.1741 6.52858 11.3155 6.88467 11.3155 7.273C11.3155 7.61283 11.2187 7.92375 11.025 8.20575C10.8315 8.48775 10.5848 8.76017 10.2848 9.023C9.62825 9.61533 9.2135 10.0878 9.0405 10.4405C8.86733 10.793 8.78075 11.3243 8.78075 12.0345ZM9.50175 19.5C8.18775 19.5 6.95267 19.2507 5.7965 18.752C4.64033 18.2533 3.63467 17.5766 2.7795 16.7218C1.92433 15.8669 1.24725 14.8617 0.74825 13.706C0.249417 12.5503 0 11.3156 0 10.0017C0 8.68775 0.249333 7.45267 0.748 6.2965C1.24667 5.14033 1.92342 4.13467 2.77825 3.2795C3.63308 2.42433 4.63833 1.74725 5.794 1.24825C6.94967 0.749417 8.18442 0.5 9.49825 0.5C10.8123 0.5 12.0473 0.749333 13.2035 1.248C14.3597 1.74667 15.3653 2.42342 16.2205 3.27825C17.0757 4.13308 17.7528 5.13833 18.2518 6.294C18.7506 7.44967 19 8.68442 19 9.99825C19 11.3123 18.7507 12.5473 18.252 13.7035C17.7533 14.8597 17.0766 15.8653 16.2218 16.7205C15.3669 17.5757 14.3617 18.2528 13.206 18.7518C12.0503 19.2506 10.8156 19.5 9.50175 19.5ZM9.5 18C11.7333 18 13.625 17.225 15.175 15.675C16.725 14.125 17.5 12.2333 17.5 10C17.5 7.76667 16.725 5.875 15.175 4.325C13.625 2.775 11.7333 2 9.5 2C7.26667 2 5.375 2.775 3.825 4.325C2.275 5.875 1.5 7.76667 1.5 10C1.5 12.2333 2.275 14.125 3.825 15.675C5.375 17.225 7.26667 18 9.5 18Z" fill="#773D4C"/>
</svg>
