<svg width="24" height="24" viewBox="0 0 24 24" fill="none" xmlns="http://www.w3.org/2000/svg">
<mask id="mask0_1628_22864" style="mask-type:alpha" maskUnits="userSpaceOnUse" x="0" y="0" width="24" height="24">
<rect width="24" height="24" fill="#D9D9D9"/>
</mask>
<g mask="url(#mask0_1628_22864)">
<path d="M5.84394 19.5577C5.06327 19.5577 4.40052 19.2847 3.85569 18.7387C3.31086 18.1927 3.03844 17.5298 3.03844 16.75H2.24994C1.99394 16.75 1.77927 16.6634 1.60594 16.4902C1.43277 16.3169 1.34619 16.1023 1.34619 15.8463V6.30775C1.34619 5.80258 1.52119 5.375 1.87119 5.025C2.22119 4.675 2.64869 4.5 3.15369 4.5H14.9614C15.4586 4.5 15.8842 4.677 16.2382 5.031C16.5922 5.385 16.7692 5.81058 16.7692 6.30775V8.30775H18.5192C18.8054 8.30775 19.0765 8.37175 19.3327 8.49975C19.5887 8.62775 19.7995 8.80475 19.9652 9.03075L22.4729 12.3885C22.5333 12.4638 22.5785 12.5467 22.6087 12.637C22.6387 12.7275 22.6537 12.8254 22.6537 12.9308V15.8463C22.6537 16.1023 22.5671 16.3169 22.3939 16.4902C22.2206 16.6634 22.0059 16.75 21.7499 16.75H20.8462C20.8462 17.5298 20.5729 18.1927 20.0264 18.7387C19.4801 19.2847 18.8167 19.5577 18.0362 19.5577C17.2557 19.5577 16.5929 19.2847 16.0479 18.7387C15.5031 18.1927 15.2307 17.5298 15.2307 16.75H8.65369C8.65369 17.532 8.38052 18.1954 7.83419 18.7402C7.28786 19.2852 6.62444 19.5577 5.84394 19.5577ZM5.84619 18.0577C6.21286 18.0577 6.52244 17.9314 6.77494 17.6788C7.02744 17.4263 7.15369 17.1167 7.15369 16.75C7.15369 16.3833 7.02744 16.0737 6.77494 15.821C6.52244 15.5685 6.21286 15.4423 5.84619 15.4423C5.47952 15.4423 5.16986 15.5685 4.91719 15.821C4.66469 16.0737 4.53844 16.3833 4.53844 16.75C4.53844 17.1167 4.66469 17.4263 4.91719 17.6788C5.16986 17.9314 5.47952 18.0577 5.84619 18.0577ZM2.84619 15.25H3.56919C3.78203 14.8795 4.08936 14.5689 4.49119 14.3183C4.89319 14.0676 5.34486 13.9423 5.84619 13.9423C6.33452 13.9423 6.78286 14.066 7.19119 14.3135C7.59952 14.561 7.91011 14.8732 8.12294 15.25H15.2692V6.30775C15.2692 6.21792 15.2404 6.14417 15.1827 6.0865C15.125 6.02883 15.0513 6 14.9614 6H3.15369C3.07686 6 3.00636 6.03208 2.94219 6.09625C2.87819 6.16025 2.84619 6.23075 2.84619 6.30775V15.25ZM18.0384 18.0577C18.4051 18.0577 18.7147 17.9314 18.9672 17.6788C19.2199 17.4263 19.3462 17.1167 19.3462 16.75C19.3462 16.3833 19.2199 16.0737 18.9672 15.821C18.7147 15.5685 18.4051 15.4423 18.0384 15.4423C17.6718 15.4423 17.3621 15.5685 17.1094 15.821C16.8569 16.0737 16.7307 16.3833 16.7307 16.75C16.7307 17.1167 16.8569 17.4263 17.1094 17.6788C17.3621 17.9314 17.6718 18.0577 18.0384 18.0577ZM16.7692 13.25H21.2499L18.7499 9.93275C18.7179 9.89425 18.6811 9.86375 18.6394 9.84125C18.5978 9.81892 18.5513 9.80775 18.4999 9.80775H16.7692V13.25Z" fill="white"/>
</g>
</svg>
