<svg width="21" height="21" viewBox="0 0 21 21" fill="none" xmlns="http://www.w3.org/2000/svg">
<g clip-path="url(#clip0_5659_241516)">
<path d="M16.4219 6.58594H13.9219V4.71094C13.9219 3.71638 13.5268 2.76255 12.8235 2.05929C12.1203 1.35603 11.1664 0.960938 10.1719 0.960938C9.17731 0.960938 8.22349 1.35603 7.52022 2.05929C6.81696 2.76255 6.42188 3.71638 6.42188 4.71094V6.58594H3.92188C3.59035 6.58594 3.27241 6.71763 3.03799 6.95205C2.80357 7.18647 2.67188 7.50442 2.67188 7.83594V16.5859C2.67188 16.9175 2.80357 17.2354 3.03799 17.4698C3.27241 17.7042 3.59035 17.8359 3.92188 17.8359H16.4219C16.7534 17.8359 17.0713 17.7042 17.3058 17.4698C17.5402 17.2354 17.6719 16.9175 17.6719 16.5859V7.83594C17.6719 7.50442 17.5402 7.18647 17.3058 6.95205C17.0713 6.71763 16.7534 6.58594 16.4219 6.58594ZM7.67188 4.71094C7.67188 4.0479 7.93527 3.41201 8.40411 2.94317C8.87295 2.47433 9.50883 2.21094 10.1719 2.21094C10.8349 2.21094 11.4708 2.47433 11.9396 2.94317C12.4085 3.41201 12.6719 4.0479 12.6719 4.71094V6.58594H7.67188V4.71094ZM16.4219 16.5859H3.92188V7.83594H16.4219V16.5859Z" fill="#191817"/>
</g>
<defs>
<clipPath id="clip0_5659_241516">
<rect width="20" height="20" fill="white" transform="translate(0.171875 0.0703125)"/>
</clipPath>
</defs>
</svg>
