<svg width="186" height="86" viewBox="0 0 186 86" fill="none" xmlns="http://www.w3.org/2000/svg">
<path d="M31.1582 51.8461C31.1582 45.0106 36.5738 36.8438 45.4069 36.8438C52.0648 36.8438 55.0387 41.105 55.0387 46.0314C55.0387 52.9109 49.5341 61.1223 40.7015 61.1223C34.0436 61.1223 31.1582 56.8165 31.1582 51.8456V51.8461ZM40.5239 60.1465C45.2733 60.1465 49.357 49.849 49.357 43.3681C49.357 40.2167 48.2472 37.7755 45.5839 37.7755C40.8345 37.7755 36.7948 48.073 36.7948 54.5094C36.7948 57.7493 37.9492 60.1465 40.5239 60.1465Z" fill="#783E4C"/>
<path d="M35.679 24.2042C33.9822 23.5173 32.2217 23.1172 30.5341 23.1172C25.2273 23.1172 20.9903 26.8877 19.5942 33.3117L18.943 36.3839H15.4521C15.332 36.9341 15.7513 37.4544 16.3145 37.4544H18.7049C18.7075 37.4544 18.7096 37.457 18.7091 37.4596C17.1365 44.8422 15.5633 52.2243 13.9907 59.607C13.5678 59.7436 12.7422 60.6536 12.7422 61.1221H21.112C21.112 60.6764 20.3169 59.7799 19.9261 59.6261C21.4914 52.2357 23.0573 44.8448 24.6226 37.4544H28.842C29.4704 37.4544 30.0072 37.0025 30.1148 36.3839H24.7614L25.2738 30.2395C25.6465 26.2826 26.9495 24.1877 29.0909 24.1877C30.2546 24.1877 30.9534 24.7928 31.6051 26.1428C32.4893 28.0048 33.4205 29.0287 34.8171 29.0287C34.8332 29.0287 34.8497 29.0287 34.8658 29.0287C37.5456 28.9857 38.1642 25.2095 35.6795 24.2042H35.679Z" fill="#783E4C"/>
<path d="M79.8576 37.9766C79.8545 36.904 78.8477 36.0851 77.8098 36.3553C73.9549 37.3601 69.7729 42.0271 67.4109 48.258L69.9375 39.8805C70.4888 37.3999 69.8003 36.1602 67.9171 36.1602C65.0235 36.1602 60.3693 39.9136 58.1191 44.2763C58.6166 44.4896 59.2409 44.2784 59.5261 43.8187C60.5013 42.2487 61.9321 40.9064 63.3401 40.1553C63.6657 39.9814 64.0446 40.2827 63.9675 40.6435L61.4414 52.4188L60.0789 59.5691C59.5846 59.6555 58.6901 60.6023 58.6901 61.1215H67.0599C67.0599 60.6095 66.1768 59.6659 65.6928 59.5711L66.6779 55.3585C68.1469 48.2855 70.7647 44.0144 73.3834 42.2228C74.2557 41.626 75.0829 41.3961 76.3687 41.2124C78.9859 40.7993 79.8592 39.3752 79.8592 37.9973V37.9766H79.8576Z" fill="#783E4C"/>
<path d="M112.742 61.1232H117.081C117.081 60.8965 116.401 60.1982 116.189 60.1511V43.5176C116.189 38.8164 113.815 35.9766 109.998 35.9766C106.599 35.9766 103.34 38.3505 101.292 42.1215C100.874 38.2578 98.5458 35.9766 95.148 35.9766C91.7502 35.9766 88.5843 38.3505 86.5365 42.0283C86.5365 39.9334 86.6757 37.7459 86.9092 35.9771C86.9092 35.9771 84.4426 35.9771 83.6201 35.9771C83.6113 35.9771 83.6046 35.9843 83.6061 35.9931C83.8836 37.9452 83.9762 40.2663 83.9762 42.7266V54.2246L83.9628 59.9337C83.9628 59.9461 83.9695 59.957 83.9705 59.9694C83.7138 59.9973 82.9922 60.7847 82.9922 61.1237H87.5154C87.5154 60.7841 86.7425 60.0242 86.4847 59.9978L86.537 54.2251V43.4643C88.3985 40.0194 91.099 37.3276 93.9844 37.3276C96.9634 37.3276 98.8259 39.7015 98.8259 43.5186L98.7824 60.37H101.379L101.386 43.4948C103.248 40.0033 105.901 37.3276 108.834 37.3276C111.813 37.3276 113.675 39.7015 113.675 43.5186L113.626 60.1537C113.418 60.2039 112.742 60.9001 112.742 61.1242L112.742 61.1232Z" fill="#783E4C"/>
<path d="M139.645 60.1685L139.706 42.2192C139.706 39.7526 139.797 37.9797 140.079 36.0747H136.819C137.1 38.0299 137.192 39.7526 137.192 42.2192V53.3211C135.283 56.5791 132.351 59.1161 129.372 59.1161C126.16 59.1161 124.298 56.928 124.298 52.9251V42.2187C124.298 39.7521 124.391 38.0294 124.67 36.0742H121.365C121.645 38.0294 121.738 39.7521 121.738 42.2187V52.8785C121.738 57.8593 124.206 60.4661 128.069 60.4661C131.653 60.4661 135.051 58.2786 137.192 54.7871L137.194 60.1695C136.993 60.2161 136.322 60.9061 136.322 61.122H140.526C140.526 60.903 139.851 60.2115 139.645 60.1675V60.1685Z" fill="#783E4C"/>
<path d="M145.615 60.1554C145.409 60.2067 144.736 60.9019 144.736 61.1229H149.062C149.062 60.905 148.393 60.2119 148.193 60.1575L148.189 54.305V30.0058C148.189 27.5392 148.281 25.8165 148.561 23.8613H145.256C145.535 25.816 145.629 27.5387 145.629 30.0058V54.305L145.616 60.1554H145.615Z" fill="#783E4C"/>
<path d="M9.29741 65.8062H5.43682C4.85706 65.8062 4.38704 65.3362 4.38704 64.7564V19.7084C4.38704 19.1287 4.85706 18.6586 5.43682 18.6586H9.29741C9.81143 18.6586 10.2286 18.4454 10.2286 17.9314C10.2286 17.9293 10.2271 17.9277 10.2255 17.9277H0.442068C0.198258 17.9277 0 18.1255 0 18.3698V66.0951C0 66.3389 0.19774 66.5371 0.442068 66.5371H10.2255C10.2255 66.5371 10.2286 66.5356 10.2286 66.534C10.2286 66.02 9.81195 65.8062 9.29741 65.8062Z" fill="#783E4C"/>
<path d="M168.286 61.1213H172.567C172.567 60.8951 171.885 60.1979 171.672 60.1554V43.0825C171.672 38.3528 168.579 36.0332 164.395 36.0332C161.354 36.0332 158.045 37.407 155.239 39.2462L157.756 40.2173C158.62 39.2084 161.007 36.3215 164.971 36.6502C167.418 36.8532 169.371 38.9227 169.306 41.3768C169.197 45.4284 164.939 46.4627 161.258 47.63C157.074 48.994 153.254 50.4946 153.254 54.6332C153.254 58.2256 156.3 60.4541 159.848 60.4541C163.487 60.4541 167.625 58.428 169.217 52.3338V60.1482C168.986 60.1761 168.287 60.8827 168.287 61.1208L168.286 61.1213ZM160.848 59.1357C158.074 59.1357 155.755 57.3622 155.755 54.2243C155.755 50.7224 158.756 49.4034 162.076 48.2211C163.91 47.6098 165.71 47.0492 167.114 46.1764C168.031 45.606 169.216 46.2277 169.216 47.3075V47.3572C169.216 55.6799 164.577 59.1357 160.848 59.1357H160.848Z" fill="#783E4C"/>
<path d="M176.621 65.8062H180.481C181.061 65.8062 181.531 65.3362 181.531 64.7564V19.7084C181.531 19.1287 181.061 18.6586 180.481 18.6586H176.621C176.107 18.6586 175.689 18.4454 175.689 17.9314C175.689 17.9293 175.691 17.9277 175.693 17.9277H185.476C185.72 17.9277 185.918 18.1255 185.918 18.3698V66.0951C185.918 66.3389 185.72 66.5371 185.476 66.5371H175.693C175.693 66.5371 175.689 66.5356 175.689 66.534C175.689 66.02 176.106 65.8062 176.621 65.8062Z" fill="#783E4C"/>
<path d="M7.91954 13.2985H2.97397V12.7881C3.23176 12.6944 3.49317 12.6121 3.75716 12.5417C4.02116 12.4713 4.30587 12.4128 4.61076 12.3657V1.89371H1.91797L0.985182 4.4105H0.545182C0.509982 4.17601 0.480477 3.9089 0.457183 3.6097C0.433889 3.3105 0.413184 3.00561 0.395584 2.69451C0.377984 2.3834 0.362973 2.07851 0.351584 1.77931C0.339679 1.48012 0.333984 1.21353 0.333984 0.978516H10.5595C10.5595 1.21353 10.5533 1.47701 10.5414 1.77051C10.53 2.06402 10.515 2.36632 10.4969 2.67691C10.4793 2.98801 10.4612 3.29291 10.4436 3.5921C10.4255 3.8913 10.3991 4.1641 10.3639 4.4105H9.90057L8.97502 1.89371H6.29983V12.3657C6.60473 12.4241 6.88943 12.4832 7.15343 12.5417C7.41743 12.6007 7.67262 12.6825 7.91902 12.7881L7.91954 13.2985Z" fill="#783E4C"/>
<path d="M21.2797 13.2996H17.4781V12.8596C17.7597 12.7074 18.1117 12.5666 18.5341 12.4372V8.31881C18.5341 7.40361 18.4047 6.68512 18.1469 6.16282C17.8886 5.64103 17.4191 5.37962 16.7389 5.37962C16.434 5.37962 16.1581 5.43501 15.9117 5.54682C15.6653 5.65864 15.4422 5.80202 15.2429 5.97802C15.0436 6.15402 14.8733 6.35642 14.7325 6.58522C14.5917 6.81402 14.4861 7.05161 14.4157 7.29801V12.4372C14.6031 12.4843 14.7822 12.5371 14.9525 12.5956C15.1223 12.6546 15.2895 12.7426 15.4541 12.8596V13.2996H11.6701V12.8596C12.034 12.6722 12.4207 12.5314 12.8317 12.4372V1.29645L11.4941 1.15565V0.698049C11.8342 0.55725 12.2302 0.434052 12.6821 0.328453C13.134 0.222853 13.5647 0.134853 13.9757 0.0644531H14.4157V6.27722H14.4333C14.6797 5.72593 15.0348 5.25642 15.4981 4.86923C15.9614 4.48203 16.522 4.28843 17.1789 4.28843C17.6479 4.28843 18.0677 4.34434 18.4373 4.45563C18.8069 4.56744 19.1149 4.76363 19.3613 5.04523C19.6077 5.32683 19.7951 5.70522 19.9245 6.18042C20.0534 6.65562 20.1181 7.25712 20.1181 7.98441V12.4372C20.3174 12.4843 20.5167 12.5371 20.7165 12.5956C20.9158 12.6546 21.1037 12.7426 21.2797 12.8596V13.2996Z" fill="#783E4C"/>
<path d="M29.0752 12.0663C28.981 12.2661 28.8345 12.4535 28.6352 12.6295C28.4354 12.8055 28.2066 12.9582 27.9488 13.0871C27.6905 13.2165 27.4094 13.319 27.104 13.3951C26.7986 13.4712 26.488 13.5095 26.1712 13.5095C25.4786 13.5095 24.8688 13.4008 24.3409 13.1839C23.8129 12.967 23.3729 12.6559 23.0209 12.2511C22.6689 11.8463 22.4018 11.3623 22.2201 10.7991C22.0379 10.2359 21.9473 9.60228 21.9473 8.89828C21.9473 7.3966 22.2931 6.2526 22.9857 5.4663C23.6783 4.68 24.6576 4.28711 25.9248 4.28711C26.3353 4.28711 26.7401 4.34301 27.1392 4.45431C27.5383 4.56612 27.8934 4.75092 28.204 5.0087C28.5151 5.26701 28.7672 5.61021 28.9608 6.0383C29.1544 6.46691 29.2512 6.99749 29.2512 7.63109C29.2512 7.8309 29.2424 8.0333 29.2248 8.23829C29.2072 8.44379 29.1746 8.66379 29.128 8.89828H23.6369C23.6369 9.39108 23.6985 9.85178 23.8217 10.2799C23.9449 10.7085 24.1297 11.0807 24.3761 11.3975C24.6225 11.7143 24.933 11.9638 25.3088 12.1455C25.6841 12.3277 26.1241 12.4183 26.6288 12.4183C27.0393 12.4183 27.456 12.3598 27.8784 12.2423C28.3008 12.1253 28.6176 11.9726 28.8288 11.7847L29.0752 12.0663ZM25.8544 5.0615C25.1856 5.0615 24.6753 5.28772 24.3233 5.7391C23.9713 6.19101 23.7601 6.9861 23.6897 8.12389H27.5616C27.573 8.01829 27.5818 7.91579 27.588 7.81589C27.5937 7.7165 27.5968 7.6197 27.5968 7.52549C27.5968 6.77439 27.456 6.17651 27.1744 5.7303C26.8928 5.28461 26.4528 5.0615 25.8544 5.0615Z" fill="#783E4C"/>
<path d="M151.013 80.3324C151.153 80.4726 151.336 80.5933 151.559 80.6926C151.781 80.7925 152.116 80.8422 152.562 80.8422C152.938 80.8422 153.289 80.7925 153.618 80.6926C153.947 80.5933 154.231 80.4462 154.472 80.2527C154.712 80.0591 154.903 79.8246 155.043 79.5487C155.184 79.2733 155.254 78.9591 155.254 78.6076C155.254 78.1386 155.111 77.7452 154.823 77.4284C154.535 77.1116 154.178 76.83 153.749 76.5836C153.321 76.3367 152.854 76.097 152.35 75.8615C151.846 75.627 151.38 75.3485 150.952 75.026C150.523 74.7035 150.165 74.3163 149.878 73.8644C149.59 73.413 149.447 72.8462 149.447 72.166C149.447 71.6732 149.535 71.2332 149.711 70.846C149.887 70.4588 150.136 70.1301 150.459 69.8604C150.781 69.5907 151.165 69.3826 151.612 69.2356C152.057 69.0891 152.556 69.0156 153.108 69.0156C153.824 69.0156 154.478 69.071 155.07 69.1828C155.662 69.2946 156.129 69.4318 156.469 69.5964C156.469 69.7962 156.455 70.0276 156.425 70.2916C156.396 70.5556 156.36 70.8284 156.32 71.11C156.279 71.3916 156.235 71.6644 156.188 71.9284C156.14 72.1924 156.093 72.4243 156.047 72.6236H155.59L154.886 70.2124C154.672 70.1187 154.403 70.0488 154.077 70.0017C153.752 69.9546 153.405 69.9308 153.038 69.9308C152.434 69.9308 151.949 70.098 151.582 70.4329C151.215 70.7673 151.031 71.2337 151.031 71.8321C151.031 72.3135 151.176 72.7178 151.465 73.0465C151.754 73.3752 152.117 73.6682 152.554 73.9265C152.991 74.1843 153.461 74.4338 153.962 74.674C154.464 74.9147 154.933 75.1932 155.37 75.51C155.807 75.8268 156.169 76.2026 156.459 76.6364C156.748 77.0707 156.893 77.6106 156.893 78.2556C156.893 78.7841 156.795 79.265 156.602 79.6988C156.409 80.1331 156.13 80.5027 155.766 80.8081C155.402 81.1135 154.957 81.348 154.429 81.5116C153.901 81.6756 153.302 81.7585 152.633 81.7585C151.894 81.7585 151.231 81.6705 150.644 81.4945C150.057 81.318 149.641 81.1306 149.395 80.9308C149.406 80.7315 149.427 80.4908 149.456 80.2092C149.486 79.9276 149.52 79.6372 149.562 79.338C149.603 79.0388 149.647 78.7479 149.694 78.4663C149.741 78.1847 149.788 77.9445 149.835 77.7447H150.292L151.014 80.3318L151.013 80.3324Z" fill="#783E4C"/>
<path d="M167.136 81.5452H163.334V81.1052C163.616 80.9525 163.968 80.8122 164.39 80.6828V76.5644C164.39 75.6492 164.261 74.9307 164.003 74.4084C163.745 73.8866 163.275 73.6252 162.595 73.6252C162.289 73.6252 162.014 73.6806 161.767 73.7924C161.521 73.9037 161.298 74.0471 161.098 74.2236C160.899 74.3996 160.729 74.6015 160.589 74.8308C160.448 75.0591 160.342 75.2967 160.272 75.5436V80.6828C160.459 80.7299 160.638 80.7822 160.809 80.8412C160.978 80.9002 161.145 80.9882 161.31 81.1057V81.5457H157.526V81.1057C157.89 80.9183 158.277 80.777 158.687 80.6833V69.5425L157.35 69.4023V68.9447C157.69 68.8039 158.086 68.6807 158.538 68.5751C158.99 68.4695 159.421 68.3815 159.831 68.3105H160.272V74.5233H160.289C160.536 73.9725 160.89 73.5025 161.354 73.1153C161.818 72.7281 162.378 72.5345 163.035 72.5345C163.504 72.5345 163.924 72.5904 164.293 72.7017C164.663 72.8135 164.971 73.0097 165.217 73.2913C165.464 73.5729 165.652 73.9513 165.78 74.4265C165.909 74.9017 165.974 75.5032 165.974 76.2305V80.6833C166.174 80.7304 166.373 80.7827 166.572 80.8417C166.772 80.9007 166.96 80.9887 167.136 81.1062V81.5462V81.5452Z" fill="#783E4C"/>
<path d="M167.803 77.1444C167.803 76.4052 167.9 75.7514 168.094 75.182C168.287 74.6126 168.566 74.1322 168.93 73.7388C169.293 73.3459 169.73 73.0467 170.24 72.8412C170.751 72.6362 171.317 72.5332 171.939 72.5332C172.666 72.5332 173.294 72.645 173.822 72.8676C174.35 73.0907 174.782 73.4044 175.116 73.8087C175.45 74.2135 175.696 74.698 175.855 75.2612C176.014 75.8244 176.093 76.4523 176.093 77.1444C176.093 78.6228 175.717 79.7611 174.966 80.5588C174.215 81.357 173.206 81.7556 171.939 81.7556C171.235 81.7556 170.624 81.6468 170.108 81.43C169.592 81.2125 169.164 80.9014 168.824 80.4966C168.483 80.0924 168.228 79.6053 168.058 79.0364C167.889 78.4675 167.803 77.837 167.803 77.1444H167.803ZM169.493 77.1444C169.493 77.6724 169.543 78.1709 169.642 78.6404C169.742 79.1099 169.9 79.5178 170.118 79.8636C170.335 80.2099 170.619 80.4827 170.971 80.682C171.323 80.8818 171.745 80.9812 172.238 80.9812C172.872 80.9812 173.391 80.6701 173.795 80.0484C174.2 79.4267 174.403 78.4587 174.403 77.1444C174.403 76.605 174.352 76.1029 174.254 75.6396C174.154 75.1763 173.998 74.7715 173.787 74.4252C173.576 74.0794 173.306 73.8066 172.978 73.6068C172.649 73.4075 172.256 73.3076 171.799 73.3076C171.106 73.3076 170.549 73.6187 170.127 74.2404C169.705 74.8626 169.493 75.8306 169.493 77.1444H169.493Z" fill="#783E4C"/>
<path d="M180.915 85.0643H177.008V84.6243C177.407 84.4364 177.794 84.2956 178.169 84.2019V73.7652L177.008 73.6249V73.1673C177.384 73.0032 177.768 72.8712 178.161 72.7708C178.554 72.6714 178.938 72.5922 179.314 72.5332H179.754V74.5049H179.772C180.006 73.9065 180.335 73.4282 180.757 73.0705C181.18 72.7128 181.731 72.5337 182.412 72.5337C183.456 72.5337 184.265 72.88 184.84 73.5721C185.414 74.2647 185.702 75.3911 185.702 76.9513C185.702 77.6905 185.605 78.3593 185.412 78.9577C185.218 79.5561 184.942 80.0608 184.585 80.4713C184.226 80.8823 183.793 81.1991 183.282 81.4217C182.772 81.6448 182.205 81.7561 181.583 81.7561C181.149 81.7561 180.809 81.7297 180.562 81.6769C180.316 81.6241 180.046 81.5335 179.753 81.4041V84.2025C179.941 84.2258 180.129 84.2698 180.317 84.3345C180.504 84.3992 180.704 84.496 180.914 84.6254V85.0654L180.915 85.0643ZM181.848 73.6244C181.273 73.6244 180.816 73.8066 180.476 74.17C180.135 74.5339 179.895 75.0324 179.754 75.666V80.5945C179.965 80.7239 180.202 80.8207 180.467 80.8849C180.731 80.9496 181.074 80.9822 181.496 80.9822C181.883 80.9822 182.232 80.8828 182.543 80.683C182.854 80.4837 183.118 80.2021 183.335 79.8382C183.552 79.4748 183.719 79.0493 183.837 78.5622C183.954 78.0751 184.013 77.5383 184.013 76.9518C184.013 76.4709 183.974 76.0278 183.898 75.623C183.822 75.2187 183.698 74.8662 183.529 74.567C183.358 74.2683 183.135 74.037 182.86 73.8718C182.584 73.7077 182.246 73.6254 181.848 73.6254L181.848 73.6244Z" fill="#783E4C"/>
</svg>
