<svg width="13.2" height="13.2" viewBox="0 0 19 19" fill="none" xmlns="http://www.w3.org/2000/svg">
<mask id="mask0_819_1364" style="mask-type:alpha" maskUnits="userSpaceOnUse" x="0" y="0" width="19" height="19">
<rect x="9.729" y="18.2421" width="12.0169" height="12.0169" transform="rotate(-135 9.729 18.2421)" fill="#D9D9D9" stroke="black"/>
</mask>
<g mask="url(#mask0_819_1364)">
<path d="M14.2314 9.768L14.2314 9.61807L14.0815 9.618L6.89176 9.61453L10.0669 6.4394L10.173 6.33333L10.0669 6.22727L9.49162 5.65199L9.38556 5.54593L9.27949 5.65199L4.86906 10.0624L4.763 10.1685L4.86906 10.2746L9.27949 14.685L9.38556 14.791L9.49162 14.685L10.0669 14.1097L10.173 14.0036L10.0669 13.8976L6.89176 10.7224L14.0815 10.719L14.2314 10.7189L14.2314 10.569L14.2314 9.768Z" fill="#050504" stroke="#050504" stroke-width="0.3"/>
</g>
</svg>
