<svg width="100" height="109" viewBox="0 0 100 109" fill="none" xmlns="http://www.w3.org/2000/svg">
<path d="M96.9885 102.129H1.51562V102.671H96.9885V102.129Z" fill="#8F8F8D"/>
<path d="M77.639 108.109H20.8672V108.652H77.639V108.109Z" fill="#8F8F8D"/>
<path d="M66.5347 28.7578H19.9317C18.0537 28.7578 16.5312 30.2802 16.5312 32.1583V98.73C16.5312 100.608 18.0537 102.13 19.9317 102.13H66.5347C68.4127 102.13 69.9351 100.608 69.9351 98.73V32.1583C69.9351 30.2802 68.4127 28.7578 66.5347 28.7578Z" fill="#C0C0C0"/>
<path d="M67.258 32.7147V95.7179C67.258 96.5477 66.5801 97.2256 65.7503 97.2256H56.6825C56.6282 97.2256 56.5632 97.2256 56.4981 97.2202C53.3254 97.128 37.9827 94.7146 27.9278 84.394C24.4189 80.4457 21.6421 75.9335 20.3025 71.3725C20.2429 71.1664 20.1832 70.9549 20.129 70.7488C20.0748 70.5373 20.0205 70.3257 19.9717 70.1142C19.809 69.279 19.6572 68.4493 19.5216 67.6195C19.4674 67.3049 19.424 66.9904 19.3806 66.6704C19.3752 66.6216 19.3697 66.5674 19.3643 66.5185V66.5077C19.2613 65.602 19.207 64.6855 19.207 63.7689V32.7147C19.207 31.885 19.885 31.207 20.7147 31.207H65.7503C66.5801 31.207 67.258 31.885 67.258 32.7147Z" fill="#E8E8E8"/>
<path d="M56.6814 97.2227C56.6272 97.2227 56.5621 97.2227 56.4971 97.2173C53.3244 97.1251 37.9817 94.7117 27.9268 84.391C24.8517 81.2455 22.2919 77.3569 20.6974 72.5898C20.5564 72.183 20.4208 71.7763 20.3015 71.3695C20.2419 71.1634 20.1822 70.9519 20.128 70.7458C20.0737 70.5343 20.0195 70.3228 19.9707 70.1113C19.6995 68.9561 19.4989 67.8064 19.3796 66.6675C19.3741 66.6187 19.3687 66.5644 19.3633 66.5156C22.0912 80.9038 35.9154 83.0623 42.9061 81.8637C43.7955 81.7119 44.5657 82.444 44.4789 83.3443C44.0125 88.2362 46.838 94.5815 56.6814 97.2227Z" fill="white"/>
<path d="M33.7436 47.7589H28.1521C27.1054 47.7589 26.2539 46.9075 26.2539 45.8608V40.2693C26.2539 39.2226 27.1054 38.3711 28.1521 38.3711H33.7436C34.7903 38.3711 35.6417 39.2226 35.6417 40.2693V45.8608C35.6417 46.9075 34.7903 47.7589 33.7436 47.7589ZM28.1521 38.9134C27.4037 38.9134 26.7962 39.5208 26.7962 40.2693V45.8608C26.7962 46.6092 27.4037 47.2166 28.1521 47.2166H33.7436C34.492 47.2166 35.0994 46.6092 35.0994 45.8608V40.2693C35.0994 39.5208 34.492 38.9134 33.7436 38.9134H28.1521Z" fill="white"/>
<path d="M33.7436 60.6925H28.1521C27.1054 60.6925 26.2539 59.8411 26.2539 58.7944V53.2029C26.2539 52.1562 27.1054 51.3047 28.1521 51.3047H33.7436C34.7903 51.3047 35.6417 52.1562 35.6417 53.2029V58.7944C35.6417 59.8411 34.7903 60.6925 33.7436 60.6925ZM28.1521 51.847C27.4037 51.847 26.7962 52.4544 26.7962 53.2029V58.7944C26.7962 59.5428 27.4037 60.1502 28.1521 60.1502H33.7436C34.492 60.1502 35.0994 59.5428 35.0994 58.7944V53.2029C35.0994 52.4544 34.492 51.847 33.7436 51.847H28.1521Z" fill="white"/>
<path d="M33.7436 73.6183H28.1521C27.1054 73.6183 26.2539 72.7668 26.2539 71.7201V66.1286C26.2539 65.0819 27.1054 64.2305 28.1521 64.2305H33.7436C34.7903 64.2305 35.6417 65.0819 35.6417 66.1286V71.7201C35.6417 72.7668 34.7903 73.6183 33.7436 73.6183ZM28.1521 64.7728C27.4037 64.7728 26.7962 65.3802 26.7962 66.1286V71.7201C26.7962 72.4686 27.4037 73.076 28.1521 73.076H33.7436C34.492 73.076 35.0994 72.4686 35.0994 71.7201V66.1286C35.0994 65.3802 34.492 64.7728 33.7436 64.7728H28.1521Z" fill="white"/>
<path d="M58.4984 41.3744H56.3291C56.1772 41.3744 56.0579 41.2551 56.0579 41.1032C56.0579 40.9513 56.1772 40.832 56.3291 40.832H58.4984C58.6503 40.832 58.7696 40.9513 58.7696 41.1032C58.7696 41.2551 58.6503 41.3744 58.4984 41.3744ZM54.1597 41.3744H51.9904C51.8385 41.3744 51.7192 41.2551 51.7192 41.1032C51.7192 40.9513 51.8385 40.832 51.9904 40.832H54.1597C54.3116 40.832 54.4309 40.9513 54.4309 41.1032C54.4309 41.2551 54.3116 41.3744 54.1597 41.3744ZM49.821 41.3744H47.6517C47.4998 41.3744 47.3805 41.2551 47.3805 41.1032C47.3805 40.9513 47.4998 40.832 47.6517 40.832H49.821C49.9729 40.832 50.0922 40.9513 50.0922 41.1032C50.0922 41.2551 49.9729 41.3744 49.821 41.3744ZM45.4823 41.3744H43.313C43.1611 41.3744 43.0418 41.2551 43.0418 41.1032C43.0418 40.9513 43.1611 40.832 43.313 40.832H45.4823C45.6342 40.832 45.7535 40.9513 45.7535 41.1032C45.7535 41.2551 45.6342 41.3744 45.4823 41.3744ZM41.1436 41.3744H38.9743C38.8224 41.3744 38.7031 41.2551 38.7031 41.1032C38.7031 40.9513 38.8224 40.832 38.9743 40.832H41.1436C41.2955 40.832 41.4148 40.9513 41.4148 41.1032C41.4148 41.2551 41.2955 41.3744 41.1436 41.3744Z" fill="white"/>
<path d="M49.821 44.2728H47.6517C47.4998 44.2728 47.3805 44.1535 47.3805 44.0016C47.3805 43.8498 47.4998 43.7305 47.6517 43.7305H49.821C49.9729 43.7305 50.0922 43.8498 50.0922 44.0016C50.0922 44.1535 49.9729 44.2728 49.821 44.2728ZM45.4823 44.2728H43.313C43.1611 44.2728 43.0418 44.1535 43.0418 44.0016C43.0418 43.8498 43.1611 43.7305 43.313 43.7305H45.4823C45.6342 43.7305 45.7535 43.8498 45.7535 44.0016C45.7535 44.1535 45.6342 44.2728 45.4823 44.2728ZM41.1436 44.2728H38.9743C38.8224 44.2728 38.7031 44.1535 38.7031 44.0016C38.7031 43.8498 38.8224 43.7305 38.9743 43.7305H41.1436C41.2955 43.7305 41.4148 43.8498 41.4148 44.0016C41.4148 44.1535 41.2955 44.2728 41.1436 44.2728Z" fill="white"/>
<path d="M54.1597 54.0853H51.9904C51.8385 54.0853 51.7192 53.966 51.7192 53.8141C51.7192 53.6623 51.8385 53.543 51.9904 53.543H54.1597C54.3116 53.543 54.4309 53.6623 54.4309 53.8141C54.4309 53.966 54.3116 54.0853 54.1597 54.0853ZM49.821 54.0853H47.6517C47.4998 54.0853 47.3805 53.966 47.3805 53.8141C47.3805 53.6623 47.4998 53.543 47.6517 53.543H49.821C49.9729 53.543 50.0922 53.6623 50.0922 53.8141C50.0922 53.966 49.9729 54.0853 49.821 54.0853ZM45.4823 54.0853H43.313C43.1611 54.0853 43.0418 53.966 43.0418 53.8141C43.0418 53.6623 43.1611 53.543 43.313 53.543H45.4823C45.6342 53.543 45.7535 53.6623 45.7535 53.8141C45.7535 53.966 45.6342 54.0853 45.4823 54.0853ZM41.1436 54.0853H38.9743C38.8224 54.0853 38.7031 53.966 38.7031 53.8141C38.7031 53.6623 38.8224 53.543 38.9743 53.543H41.1436C41.2955 53.543 41.4148 53.6623 41.4148 53.8141C41.4148 53.966 41.2955 54.0853 41.1436 54.0853Z" fill="white"/>
<path d="M54.1597 66.7884H51.9904C51.8385 66.7884 51.7192 66.6691 51.7192 66.5173C51.7192 66.3654 51.8385 66.2461 51.9904 66.2461H54.1597C54.3116 66.2461 54.4309 66.3654 54.4309 66.5173C54.4309 66.6691 54.3116 66.7884 54.1597 66.7884ZM49.821 66.7884H47.6517C47.4998 66.7884 47.3805 66.6691 47.3805 66.5173C47.3805 66.3654 47.4998 66.2461 47.6517 66.2461H49.821C49.9729 66.2461 50.0922 66.3654 50.0922 66.5173C50.0922 66.6691 49.9729 66.7884 49.821 66.7884ZM45.4823 66.7884H43.313C43.1611 66.7884 43.0418 66.6691 43.0418 66.5173C43.0418 66.3654 43.1611 66.2461 43.313 66.2461H45.4823C45.6342 66.2461 45.7535 66.3654 45.7535 66.5173C45.7535 66.6691 45.6342 66.7884 45.4823 66.7884ZM41.1436 66.7884H38.9743C38.8224 66.7884 38.7031 66.6691 38.7031 66.5173C38.7031 66.3654 38.8224 66.2461 38.9743 66.2461H41.1436C41.2955 66.2461 41.4148 66.3654 41.4148 66.5173C41.4148 66.6691 41.2955 66.7884 41.1436 66.7884Z" fill="white"/>
<path d="M81.3903 2.59766C73.9928 2.59766 68 8.5959 68 15.9879C68 20.7171 70.4568 24.8714 74.1609 27.2577C74.1826 28.1363 74.1447 29.0962 74.0091 30.1321C73.7867 31.8187 73.3746 33.2505 72.9461 34.384C72.8268 34.6985 73.1359 35.0077 73.4505 34.8775C74.7304 34.346 76.4442 33.4457 78.1254 31.9109C79.0745 31.0432 79.8175 30.1592 80.3978 29.3403C80.7286 29.362 81.0595 29.3836 81.3957 29.3836C88.7932 29.3836 94.786 23.3854 94.786 15.9934C94.786 8.60132 88.7878 2.60308 81.3957 2.60308L81.3903 2.59766Z" fill="#D7837F"/>
<path d="M93.9131 13.1793C97.2738 13.1793 99.9982 10.3069 99.9982 6.76349C99.9982 3.22012 97.2738 0.347656 93.9131 0.347656C90.5525 0.347656 87.8281 3.22012 87.8281 6.76349C87.8281 10.3069 90.5525 13.1793 93.9131 13.1793Z" fill="#E8E8E8"/>
<path d="M96.5105 6.68478C96.5105 9.288 95.5451 10.7198 93.853 10.7198C92.3562 10.7198 91.3474 9.32054 91.3203 6.78783C91.3203 4.22257 92.4267 2.8125 93.9778 2.8125C95.5288 2.8125 96.5105 4.24969 96.5105 6.68478ZM92.3562 6.8041C92.3562 8.79447 92.969 9.92253 93.9073 9.92253C94.9648 9.92253 95.4746 8.686 95.4746 6.73359C95.4746 4.78118 94.9919 3.61516 93.9235 3.61516C93.0178 3.61516 92.3562 4.72152 92.3562 6.8041Z" fill="#A3A3A3"/>
<path d="M10.7967 92.429C10.5906 92.429 10.3899 92.429 10.1838 92.4182C9.58182 92.3911 8.97441 92.326 8.37784 92.2175C8.27479 92.1958 8.20429 92.0982 8.22056 91.9897C8.23683 91.8813 8.33987 91.8162 8.44834 91.8325C9.02322 91.9409 9.61436 92.006 10.2001 92.0277C10.6828 92.0494 11.1654 92.044 11.6427 92.0169C11.7457 92.0169 11.8379 92.0928 11.8488 92.1958C11.8542 92.3043 11.7729 92.3911 11.6698 92.4019C11.3824 92.4182 11.0895 92.429 10.7967 92.429ZM14.8642 91.903C14.7774 91.903 14.6961 91.8433 14.6744 91.7565C14.6472 91.6535 14.7123 91.5504 14.8154 91.5233C15.3523 91.3932 15.9055 91.2305 16.4695 91.0461C16.5725 91.0135 16.681 91.0678 16.7135 91.1708C16.7461 91.2739 16.6919 91.3823 16.5888 91.4149C16.0194 91.5993 15.4553 91.762 14.9076 91.8975C14.8913 91.8975 14.875 91.903 14.8588 91.903H14.8642ZM5.32991 91.2034C5.30279 91.2034 5.27025 91.1979 5.24313 91.1817C4.21269 90.6719 3.30699 90.0265 2.55314 89.2618C2.47722 89.1859 2.47722 89.0611 2.55314 88.9906C2.62907 88.9147 2.74838 88.9147 2.82431 88.9906C3.54562 89.7228 4.41878 90.3465 5.41126 90.8346C5.50888 90.8834 5.54684 90.9973 5.49803 91.0949C5.46549 91.1654 5.39499 91.2034 5.32448 91.2034H5.32991ZM0.899017 86.6315C0.82309 86.6315 0.752586 86.5881 0.720046 86.5121C0.307871 85.5197 0.0638193 84.435 0.00416232 83.2852C-0.00126104 83.1768 0.0800894 83.09 0.188557 83.0846C0.286177 83.0792 0.383798 83.1605 0.389221 83.269C0.443455 84.3699 0.676659 85.4112 1.07256 86.3657C1.11595 86.4633 1.06714 86.5772 0.969521 86.6206C0.947828 86.6315 0.920711 86.6369 0.893594 86.6369L0.899017 86.6315ZM71.7824 82.5856C71.6793 82.5856 71.5926 82.5043 71.5871 82.4012C71.5871 82.2928 71.6685 82.206 71.7715 82.2006C72.8779 82.1626 73.9571 82.0596 74.9876 81.8969C75.096 81.8806 75.1937 81.9511 75.2099 82.0596C75.2262 82.1626 75.1557 82.2657 75.0472 82.2819C74.006 82.4446 72.905 82.5531 71.7878 82.591H71.7824V82.5856ZM68.5284 82.5368H68.5175C67.4654 82.4717 66.3699 82.3524 65.2689 82.1843C65.1659 82.168 65.09 82.0704 65.1062 81.9674C65.1225 81.8643 65.2201 81.7884 65.3232 81.8047C66.4132 81.9674 67.4979 82.0867 68.5392 82.1518C68.6477 82.1572 68.7236 82.2494 68.7182 82.3578C68.7128 82.4609 68.626 82.5368 68.5284 82.5368ZM62.0963 81.5877C62.0963 81.5877 62.0691 81.5877 62.0529 81.5877L61.6082 81.4847C60.7241 81.2786 59.813 81.04 58.891 80.7796C58.788 80.7525 58.7283 80.6441 58.7555 80.541C58.7826 80.438 58.891 80.3783 58.9941 80.4054C59.9106 80.6658 60.8218 80.899 61.6949 81.1051L62.1342 81.2081C62.2373 81.2298 62.3023 81.3328 62.2806 81.4413C62.259 81.5335 62.183 81.5932 62.0908 81.5932L62.0963 81.5877ZM78.1874 81.5498C78.106 81.5498 78.0301 81.4955 78.003 81.4142C77.9704 81.3111 78.0301 81.2027 78.1277 81.1701C79.169 80.8447 80.1777 80.4434 81.116 79.9716C81.2136 79.9228 81.3275 79.9607 81.3763 80.0583C81.4251 80.156 81.3871 80.2699 81.2895 80.3187C80.3296 80.8013 79.31 81.2135 78.2416 81.5443C78.2199 81.5498 78.2036 81.5552 78.1819 81.5552L78.1874 81.5498ZM0.513959 80.2427C0.513959 80.2427 0.481418 80.2427 0.470572 80.2427C0.367528 80.2156 0.302447 80.1126 0.329564 80.0095C0.584462 78.9411 0.985791 77.9053 1.51186 76.9345C1.56067 76.8423 1.67998 76.8043 1.77218 76.8586C1.86438 76.9074 1.90234 77.0267 1.84811 77.1189C1.33289 78.0571 0.947828 79.0604 0.698353 80.1017C0.676659 80.1885 0.595309 80.2482 0.508535 80.2482L0.513959 80.2427ZM55.8431 79.8251C55.8431 79.8251 55.8051 79.8251 55.7835 79.8143C54.8018 79.4943 53.7931 79.1418 52.703 78.7459C52.6054 78.7079 52.5511 78.5995 52.5891 78.4964C52.6271 78.3934 52.7355 78.3446 52.8386 78.3825C53.9232 78.7784 54.932 79.1255 55.9082 79.4455C56.0112 79.478 56.0655 79.5865 56.0329 79.6896C56.0058 79.7709 55.9299 79.8251 55.8485 79.8251H55.8431ZM83.9687 78.6157C83.909 78.6157 83.8548 78.5886 83.8168 78.5398C83.7517 78.453 83.768 78.3337 83.8548 78.2686C84.6954 77.6232 85.4872 76.8911 86.2085 76.083C86.279 76.0017 86.4038 75.9962 86.4797 76.0667C86.561 76.1372 86.5665 76.262 86.496 76.3379C85.7584 77.1623 84.9503 77.9161 84.088 78.5723C84.0554 78.5995 84.0121 78.6103 83.9687 78.6103V78.6157ZM49.7201 77.6178C49.7201 77.6178 49.6713 77.6178 49.6496 77.607C48.6355 77.2165 47.6267 76.8206 46.618 76.4193C46.5204 76.3813 46.4715 76.2674 46.5095 76.1698C46.5475 76.0722 46.6614 76.0234 46.759 76.0613C47.7677 76.4627 48.7765 76.8586 49.7852 77.249C49.8828 77.287 49.9316 77.4009 49.8937 77.4985C49.8666 77.5744 49.7906 77.6233 49.7147 77.6233L49.7201 77.6178ZM43.6622 75.2315C43.6622 75.2315 43.6134 75.2315 43.5917 75.2207C42.583 74.8248 41.5742 74.4289 40.5601 74.0438C40.4625 74.0059 40.4082 73.892 40.4462 73.7944C40.4841 73.6967 40.5926 73.6425 40.6957 73.6805C41.7098 74.0655 42.7186 74.4614 43.7327 74.8573C43.8304 74.8953 43.8792 75.0092 43.8412 75.1068C43.8087 75.1827 43.7382 75.2315 43.6622 75.2315ZM3.60528 74.6079C3.55647 74.6079 3.50766 74.5916 3.46969 74.5536C3.39376 74.4777 3.39376 74.3584 3.46969 74.2825C4.21812 73.5123 5.06958 72.8127 6.00783 72.1945C6.0946 72.1348 6.21934 72.1619 6.27357 72.2487C6.33323 72.3355 6.30611 72.4602 6.21934 72.5144C5.30279 73.1164 4.47301 73.7998 3.74628 74.5482C3.70832 74.5862 3.65951 74.6079 3.60528 74.6079ZM88.2911 73.8052C88.2586 73.8052 88.2206 73.7944 88.188 73.7781C88.0958 73.7238 88.0687 73.6045 88.123 73.5123C88.687 72.6012 89.1697 71.6304 89.5602 70.638C89.5981 70.5403 89.712 70.4915 89.8096 70.5295C89.9073 70.5675 89.9561 70.6813 89.9181 70.779C89.5168 71.7931 89.0233 72.7856 88.4484 73.713C88.4104 73.7727 88.3508 73.8052 88.2857 73.8052H88.2911ZM37.5772 72.932C37.5772 72.932 37.5338 72.932 37.5121 72.9212C36.4492 72.547 35.4133 72.1999 34.4317 71.8853C34.3286 71.8528 34.2744 71.7443 34.3069 71.6413C34.3395 71.5382 34.4479 71.484 34.551 71.5165C35.5326 71.8257 36.5739 72.1782 37.6423 72.5578C37.7453 72.5958 37.7942 72.7043 37.7616 72.8019C37.7345 72.8832 37.6586 72.932 37.5772 72.932ZM8.98525 71.0339C8.90932 71.0339 8.83882 70.9905 8.80628 70.9145C8.76289 70.8169 8.80628 70.703 8.90932 70.6596C9.88011 70.2529 10.9322 69.9058 12.0223 69.6292C12.1254 69.6021 12.2284 69.6672 12.2555 69.7702C12.2827 69.8733 12.2176 69.9763 12.1145 70.0034C11.0407 70.2746 10.0103 70.6108 9.05576 71.0122C9.03406 71.023 9.00695 71.0284 8.97983 71.0284L8.98525 71.0339ZM31.3675 70.9796C31.3675 70.9796 31.3349 70.9796 31.3187 70.9742C30.2448 70.6868 29.1819 70.4265 28.1677 70.2095C28.0646 70.1878 27.9996 70.0848 28.0213 69.9817C28.043 69.8787 28.146 69.8082 28.249 69.8353C29.2741 70.0522 30.3425 70.3126 31.4217 70.6C31.5247 70.6271 31.5844 70.7356 31.5573 70.8386C31.5356 70.9254 31.4542 70.9796 31.3729 70.9796H31.3675ZM25.0004 69.6401C25.0004 69.6401 24.9842 69.6401 24.9733 69.6401C23.8832 69.4828 22.7986 69.3635 21.7519 69.293C21.6434 69.2875 21.5675 69.1953 21.5729 69.0869C21.5783 68.9784 21.6759 68.9025 21.779 68.9079C22.8365 68.9784 23.9266 69.0977 25.0276 69.2604C25.1306 69.2767 25.2065 69.3743 25.1903 69.4774C25.174 69.575 25.0926 69.6401 25.0004 69.6401ZM15.2709 69.4285C15.1733 69.4285 15.092 69.358 15.0811 69.2604C15.0703 69.1574 15.1462 69.0598 15.2492 69.0435C15.6126 69.0001 15.976 68.9621 16.3393 68.935C17.0552 68.8754 17.7874 68.8374 18.5141 68.8266C18.6334 68.8157 18.7093 68.9079 18.7093 69.0164C18.7093 69.1248 18.628 69.2116 18.5195 69.2116C17.7982 69.2279 17.0769 69.2604 16.3719 69.3201C16.0139 69.3472 15.656 69.3852 15.2926 69.4285C15.2872 69.4285 15.2764 69.4285 15.2709 69.4285ZM90.6611 67.7853C90.6611 67.7853 90.634 67.7853 90.6231 67.7853C90.5201 67.7636 90.4496 67.6605 90.4713 67.5575C90.6828 66.4945 90.7967 65.4207 90.8021 64.3631C90.8021 64.2547 90.8889 64.1733 90.9974 64.1733C91.1058 64.1733 91.1872 64.2601 91.1872 64.3686C91.1763 65.4532 91.0624 66.5542 90.8455 67.6388C90.8292 67.731 90.7479 67.7961 90.6557 67.7961L90.6611 67.7853ZM90.7045 61.3206C90.6123 61.3206 90.5309 61.2555 90.5147 61.1633C90.3194 60.1221 90.0157 59.0808 89.6252 58.072C89.5873 57.9744 89.6361 57.8605 89.7337 57.8226C89.8313 57.7846 89.9452 57.8334 89.9832 57.931C90.3845 58.9615 90.6882 60.019 90.8889 61.0874C90.9106 61.1905 90.8401 61.2935 90.737 61.3152C90.7262 61.3152 90.7153 61.3152 90.6991 61.3152L90.7045 61.3206ZM88.367 55.2844C88.3019 55.2844 88.2369 55.2519 88.2043 55.1922C87.6457 54.2757 87.0058 53.4079 86.2953 52.6053C86.2248 52.5239 86.2302 52.4046 86.3116 52.3341C86.3929 52.2636 86.5122 52.269 86.5827 52.3504C87.304 53.1693 87.9603 54.0587 88.5297 54.9916C88.584 55.0838 88.5568 55.2031 88.4646 55.2573C88.4321 55.279 88.3996 55.2844 88.3616 55.2844H88.367ZM84.0717 50.4359C84.0283 50.4359 83.9904 50.4251 83.9524 50.3925C83.1009 49.7255 82.1898 49.1397 81.2516 48.6571C81.1594 48.6083 81.1214 48.4944 81.1702 48.3967C81.219 48.2991 81.3329 48.2666 81.4305 48.3154C82.3959 48.8089 83.3233 49.4055 84.1964 50.0888C84.2778 50.1539 84.2941 50.2732 84.229 50.36C84.191 50.4088 84.1368 50.4359 84.0771 50.4359H84.0717Z" fill="#8F8F8D"/>
<path d="M77.5909 50.2889C77.3848 50.5655 77.195 50.8638 77.1245 51.2001C77.054 51.5363 77.1191 51.916 77.3577 52.16C77.797 52.5993 78.5563 52.4041 79.0661 52.0515C79.9935 51.4224 80.628 50.3757 80.7582 49.2639C80.8666 48.3691 80.666 47.42 80.986 46.5739C81.3059 45.7279 82.1574 45.1096 83.0577 45.0717C83.7085 45.0446 84.4623 45.4242 84.522 46.075C84.5762 46.6499 84.0773 47.1217 83.5729 47.4091C83.0523 47.7074 82.4774 47.9189 81.8862 48.0274C81.371 48.1196 80.8178 48.022 80.3243 48.1576C79.2613 48.4559 78.2255 49.4266 77.5855 50.2835L77.5909 50.2889Z" fill="#A3A3A3"/>
<path d="M80.952 12.2983C77.0147 7.10271 67.4533 15.3788 81.0117 22.7274C81.2449 22.8522 81.5378 22.8522 81.7764 22.7274C95.3294 15.3788 85.768 7.10271 81.836 12.2983C81.6191 12.5857 81.1744 12.5857 80.9574 12.2983H80.952Z" fill="white"/>
<path d="M88.2512 94.4956C88.1969 94.4956 88.1481 94.4739 88.1102 94.4359L83.9071 89.9399C83.8366 89.864 83.8366 89.7393 83.9179 89.6688C83.9938 89.5983 84.1186 89.5983 84.1891 89.6796L88.3922 94.1756C88.4627 94.2515 88.4627 94.3763 88.3813 94.4468C88.3434 94.4793 88.2946 94.501 88.2512 94.501V94.4956Z" fill="#8F8F8D"/>
<path d="M84.0578 94.5001C84.009 94.5001 83.9657 94.4839 83.9277 94.4513C83.8518 94.3808 83.8463 94.2561 83.9168 94.1801L88.0983 89.6679C88.1688 89.5866 88.2935 89.5866 88.3694 89.6571C88.4453 89.7276 88.4508 89.8523 88.3803 89.9282L84.1989 94.4405C84.1609 94.4839 84.1067 94.5001 84.0578 94.5001Z" fill="#8F8F8D"/>
<path d="M13.1367 23.1749C13.0662 23.1749 12.9903 23.1478 12.9361 23.0881L7.18729 16.9434C7.08425 16.835 7.08967 16.6614 7.19814 16.5584C7.30661 16.4553 7.48015 16.4608 7.5832 16.5692L13.332 22.7139C13.435 22.8224 13.4296 22.9959 13.3211 23.099C13.2669 23.1478 13.2018 23.1695 13.1367 23.1695V23.1749Z" fill="#8F8F8D"/>
<path d="M7.40284 23.1878C7.33776 23.1878 7.27268 23.1661 7.21844 23.1173C7.10998 23.0142 7.10455 22.8461 7.20217 22.7322L12.9238 16.5604C13.0269 16.452 13.195 16.4411 13.3089 16.5442C13.4173 16.6472 13.4228 16.8153 13.3252 16.9292L7.6035 23.101C7.54927 23.1607 7.47877 23.1878 7.40284 23.1878Z" fill="#8F8F8D"/>
<path d="M52.8236 27.2998H47.2321C47.2484 27.1425 47.2647 26.9852 47.2647 26.828C47.2647 24.5989 45.4587 22.793 43.2297 22.793C41.0007 22.793 39.1947 24.5989 39.1947 26.828C39.1947 26.9852 39.211 27.1425 39.2273 27.2998H33.6358C32.8548 27.2998 32.2148 27.9343 32.2148 28.7207V32.9943C32.2148 33.7807 32.8548 34.4207 33.6358 34.4207H52.8236C53.6046 34.4207 54.2445 33.7807 54.2445 32.9943V28.7207C54.2445 27.9343 53.6046 27.2998 52.8236 27.2998ZM43.2297 28.5797C42.2589 28.5797 41.4725 27.7933 41.4725 26.828C41.4725 25.8626 42.2589 25.0708 43.2297 25.0708C44.2005 25.0708 44.9869 25.8572 44.9869 26.828C44.9869 27.7987 44.2005 28.5797 43.2297 28.5797Z" fill="#A3A3A3"/>
</svg>
