<svg width="32" height="32" viewBox="0 0 32 32" fill="none" xmlns="http://www.w3.org/2000/svg">
<circle cx="16" cy="16" r="15.5" fill="#050504" stroke="#050504"/>
<mask id="mask0_819_1368" style="mask-type:alpha" maskUnits="userSpaceOnUse" x="7" y="7" width="19" height="19">
<rect x="16.2705" y="7.75789" width="12.0169" height="12.0169" transform="rotate(45 16.2705 7.75789)" fill="#D9D9D9" stroke="white"/>
</mask>
<g mask="url(#mask0_819_1368)">
<path d="M11.7676 16.232L11.7676 16.3819L11.9175 16.382L19.1073 16.3855L15.9321 19.5606L15.8261 19.6667L15.9321 19.7727L16.5074 20.348L16.6135 20.4541L16.7195 20.348L21.13 15.9376L21.236 15.8315L21.13 15.7254L16.7195 11.315L16.6135 11.209L16.5074 11.315L15.9321 11.8903L15.8261 11.9964L15.9321 12.1024L19.1073 15.2776L11.9175 15.281L11.7676 15.2811L11.7676 15.431V16.232Z" fill="white" stroke="white" stroke-width="0.3"/>
</g>
</svg>
