<svg width="20" height="18" viewBox="0 0 20 18" fill="none" xmlns="http://www.w3.org/2000/svg">
<path d="M9.81818 18L8.67746 16.9602C6.96428 15.3843 5.54753 14.0301 4.42722 12.8976C3.30692 11.765 2.41915 10.757 1.76391 9.87358C1.10868 8.99035 0.650928 8.18458 0.39066 7.45627C0.13022 6.72813 0 5.98926 0 5.23964C0 3.75246 0.494526 2.50734 1.48358 1.5043C2.4728 0.501433 3.70077 0 5.16746 0C6.0697 0 6.92233 0.213952 7.72536 0.641856C8.52838 1.06976 9.22599 1.68341 9.81818 2.4828C10.4104 1.68341 11.108 1.06976 11.911 0.641856C12.714 0.213952 13.5667 0 14.4689 0C15.9356 0 17.1636 0.501433 18.1528 1.5043C19.1418 2.50734 19.6364 3.75246 19.6364 5.23964C19.6364 5.98926 19.5061 6.72813 19.2457 7.45627C18.9854 8.18458 18.5277 8.99035 17.8724 9.87358C17.2172 10.757 16.3311 11.765 15.214 12.8976C14.0972 14.0301 12.6788 15.3843 10.9589 16.9602L9.81818 18ZM9.81818 15.8761C11.4718 14.3674 12.8325 13.0743 13.9005 11.9967C14.9684 10.9192 15.8124 9.98318 16.4325 9.1885C17.0526 8.39382 17.4833 7.68812 17.7244 7.07142C17.9655 6.45489 18.0861 5.8443 18.0861 5.23964C18.0861 4.19171 17.7416 3.31844 17.0526 2.61982C16.3636 1.9212 15.5024 1.57189 14.4689 1.57189C13.6528 1.57189 12.8985 1.80663 12.2061 2.2761C11.5138 2.74575 10.9656 3.39904 10.5615 4.23599H9.07484C8.66403 3.39223 8.11412 2.73728 7.42513 2.27112C6.73613 1.80497 5.98358 1.57189 5.16746 1.57189C4.14052 1.57189 3.28091 1.9212 2.58864 2.61982C1.89637 3.31844 1.55024 4.19171 1.55024 5.23964C1.55024 5.8443 1.67081 6.45489 1.91196 7.07142C2.15311 7.68812 2.58373 8.39382 3.20383 9.1885C3.82392 9.98318 4.66794 10.9176 5.73589 11.9917C6.80383 13.0658 8.16459 14.3606 9.81818 15.8761Z" fill="#191817"/>
</svg>
