<svg width="24" height="24" viewBox="0 0 24 24" fill="none" xmlns="http://www.w3.org/2000/svg">
<mask id="mask0_819_1629" style="mask-type:alpha" maskUnits="userSpaceOnUse" x="0" y="0" width="24" height="24">
<rect width="24" height="24" fill="#D9D9D9"/>
</mask>
<g mask="url(#mask0_819_1629)">
<path d="M5.70842 17.5708C6.60316 16.9069 7.5779 16.3826 8.63263 15.9979C9.68719 15.6133 10.8096 15.4211 12 15.4211C13.1904 15.4211 14.3128 15.6133 15.3674 15.9979C16.4221 16.3826 17.3968 16.9069 18.2916 17.5708C18.946 16.8515 19.4645 16.0189 19.8471 15.0729C20.2297 14.1269 20.4211 13.1026 20.4211 12C20.4211 9.66667 19.6009 7.67982 17.9605 6.03947C16.3202 4.39912 14.3333 3.57895 12 3.57895C9.66667 3.57895 7.67982 4.39912 6.03947 6.03947C4.39912 7.67982 3.57895 9.66667 3.57895 12C3.57895 13.1026 3.77026 14.1269 4.15289 15.0729C4.53553 16.0189 5.05404 16.8515 5.70842 17.5708ZM12.0003 12.7895C11.0392 12.7895 10.2288 12.4597 9.56895 11.8C8.90895 11.1402 8.57895 10.3297 8.57895 9.36868C8.57895 8.40763 8.90877 7.59719 9.56842 6.93737C10.2282 6.27737 11.0387 5.94737 11.9997 5.94737C12.9608 5.94737 13.7712 6.27719 14.4311 6.93684C15.0911 7.59667 15.4211 8.4071 15.4211 9.36816C15.4211 10.3292 15.0912 11.1397 14.4316 11.7995C13.7718 12.4595 12.9613 12.7895 12.0003 12.7895ZM12 22C10.6114 22 9.30877 21.7389 8.09211 21.2166C6.87544 20.6943 5.81711 19.9831 4.91711 19.0829C4.01693 18.1829 3.3057 17.1246 2.78342 15.9079C2.26114 14.6912 2 13.3886 2 12C2 10.6114 2.26114 9.30877 2.78342 8.09211C3.3057 6.87544 4.01693 5.8171 4.91711 4.9171C5.81711 4.01693 6.87544 3.3057 8.09211 2.78342C9.30877 2.26114 10.6114 2 12 2C13.3886 2 14.6912 2.26114 15.9079 2.78342C17.1246 3.3057 18.1829 4.01693 19.0829 4.9171C19.9831 5.8171 20.6943 6.87544 21.2166 8.09211C21.7389 9.30877 22 10.6114 22 12C22 13.3886 21.7389 14.6912 21.2166 15.9079C20.6943 17.1246 19.9831 18.1829 19.0829 19.0829C18.1829 19.9831 17.1246 20.6943 15.9079 21.2166C14.6912 21.7389 13.3886 22 12 22ZM12 20.4211C12.95 20.4211 13.866 20.2682 14.7479 19.9626C15.6298 19.6568 16.4129 19.2294 17.0971 18.6803C16.4129 18.1511 15.64 17.7389 14.7784 17.4434C13.9167 17.1478 12.9905 17 12 17C11.0095 17 10.0817 17.1461 9.21658 17.4382C8.35149 17.7304 7.58026 18.1445 6.90289 18.6803C7.58711 19.2294 8.37018 19.6568 9.25211 19.9626C10.134 20.2682 11.05 20.4211 12 20.4211ZM12 11.2105C12.5237 11.2105 12.9616 11.0344 13.3137 10.6821C13.666 10.33 13.8421 9.89211 13.8421 9.36842C13.8421 8.84474 13.666 8.40684 13.3137 8.05474C12.9616 7.70246 12.5237 7.52632 12 7.52632C11.4763 7.52632 11.0384 7.70246 10.6863 8.05474C10.334 8.40684 10.1579 8.84474 10.1579 9.36842C10.1579 9.89211 10.334 10.33 10.6863 10.6821C11.0384 11.0344 11.4763 11.2105 12 11.2105Z" fill="#191817"/>
</g>
</svg>
