<svg width="16" height="16" viewBox="0 0 16 16" fill="none" xmlns="http://www.w3.org/2000/svg">
<mask id="mask0_3109_79332" style="mask-type:alpha" maskUnits="userSpaceOnUse" x="0" y="0" width="16" height="16">
<rect width="16" height="16" fill="#D9D9D9"/>
</mask>
<g mask="url(#mask0_3109_79332)">
<path d="M6.01367 14.1514L4.90083 12.2746L2.783 11.8181L2.99067 9.63342L1.5625 7.99758L2.99067 6.36175L2.783 4.17708L4.90083 3.72058L6.01367 1.84375L7.99833 2.68225L9.983 1.84375L11.0958 3.72058L13.2137 4.17708L13.006 6.36175L14.4342 7.99758L13.006 9.63342L13.2137 11.8181L11.0958 12.2746L9.983 14.1514L7.99833 13.3129L6.01367 14.1514ZM6.29833 13.2976L7.99833 12.5899L9.706 13.2976L10.665 11.6976L12.4983 11.2899L12.3317 9.39758L13.565 7.99758L12.3317 6.58992L12.4983 4.69758L10.665 4.29758L9.69833 2.69758L7.99833 3.40525L6.29067 2.69758L5.33167 4.29758L3.49833 4.69758L3.665 6.58992L2.43167 7.99758L3.665 9.39758L3.49833 11.2976L5.33167 11.6976L6.29833 13.2976ZM7.29833 9.90275L10.6035 6.59758L10.1317 6.11808L7.29833 8.95142L5.865 7.52575L5.39317 7.99758L7.29833 9.90275Z" fill="#191817"/>
</g>
</svg>
