<svg width="24" height="24" viewBox="0 0 24 24" fill="none" xmlns="http://www.w3.org/2000/svg">
<mask id="mask0_1242_1252" style="mask-type:alpha" maskUnits="userSpaceOnUse" x="0" y="0" width="24" height="24">
<rect width="24" height="24" fill="#D9D9D9"/>
</mask>
<g mask="url(#mask0_1242_1252)">
<path d="M19.6137 21L15.9684 17.3544C15.3106 17.8975 14.5541 18.3226 13.699 18.6295C12.8439 18.9365 11.9592 19.09 11.0451 19.09C8.79658 19.09 6.89358 18.3115 5.33615 16.7545C3.77872 15.1976 3 13.295 3 11.047C3 8.7991 3.7785 6.89592 5.33549 5.33742C6.89249 3.77914 8.79504 3 11.0432 3C13.2911 3 15.1943 3.7787 16.7528 5.33611C18.3111 6.89351 19.0903 8.79647 19.0903 11.045C19.0903 11.9845 18.9326 12.8818 18.6173 13.7369C18.3018 14.5921 17.8809 15.3358 17.3547 15.9681L21 19.6134L19.6137 21ZM11.0451 17.117C12.7403 17.117 14.176 16.5287 15.3524 15.3521C16.5289 14.1758 17.1172 12.7401 17.1172 11.045C17.1172 9.34988 16.5289 7.91417 15.3524 6.73784C14.176 5.56129 12.7403 4.97301 11.0451 4.97301C9.35 4.97301 7.91426 5.56129 6.73791 6.73784C5.56133 7.91417 4.97305 9.34988 4.97305 11.045C4.97305 12.7401 5.56133 14.1758 6.73791 15.3521C7.91426 16.5287 9.35 17.117 11.0451 17.117Z" fill="#191817"/>
</g>
</svg>
