<svg width="75" height="75" viewBox="0 0 75 75" fill="none" xmlns="http://www.w3.org/2000/svg">
<circle cx="37.5" cy="37.5" r="37" stroke="white"/>
<path d="M43.6668 43.6667V29.7833C43.6668 28.1965 43.6668 27.4031 43.358 26.797C43.0864 26.2639 42.6529 25.8305 42.1198 25.5588C41.5137 25.25 40.7203 25.25 39.1335 25.25H28.3668C26.78 25.25 25.9866 25.25 25.3805 25.5588C24.8474 25.8305 24.414 26.2639 24.1423 26.797C23.8335 27.4031 23.8335 28.1965 23.8335 29.7833V39.1333C23.8335 40.7201 23.8335 41.5136 24.1423 42.1196C24.414 42.6528 24.8474 43.0862 25.3805 43.3579C25.9866 43.6667 26.78 43.6667 28.3668 43.6667H43.6668ZM43.6668 43.6667H49.9002C50.6936 43.6667 51.0903 43.6667 51.3933 43.5123C51.6599 43.3764 51.8766 43.1597 52.0124 42.8932C52.1668 42.5901 52.1668 42.1934 52.1668 41.4V37.5222C52.1668 37.1757 52.1668 37.0025 52.1277 36.8394C52.093 36.6949 52.0357 36.5567 51.9581 36.4299C51.8705 36.287 51.748 36.1645 51.5029 35.9194L48.5807 32.9972C48.3357 32.7522 48.2132 32.6297 48.0702 32.5421C47.9435 32.4644 47.8053 32.4072 47.6607 32.3725C47.4977 32.3333 47.3244 32.3333 46.9779 32.3333H43.6668M33.7502 47.2083C33.7502 49.1643 32.1645 50.75 30.2085 50.75C28.2525 50.75 26.6668 49.1643 26.6668 47.2083C26.6668 45.2523 28.2525 43.6667 30.2085 43.6667C32.1645 43.6667 33.7502 45.2523 33.7502 47.2083ZM49.3335 47.2083C49.3335 49.1643 47.7478 50.75 45.7918 50.75C43.8358 50.75 42.2502 49.1643 42.2502 47.2083C42.2502 45.2523 43.8358 43.6667 45.7918 43.6667C47.7478 43.6667 49.3335 45.2523 49.3335 47.2083Z" stroke="white" stroke-width="2.4" stroke-linecap="round" stroke-linejoin="round"/>
</svg>
