<svg width="24" height="24" viewBox="0 0 24 24" fill="none" xmlns="http://www.w3.org/2000/svg">
<mask id="mask0_819_1626" style="mask-type:alpha" maskUnits="userSpaceOnUse" x="0" y="0" width="24" height="24">
<rect width="24" height="24" fill="#D9D9D9"/>
</mask>
<g mask="url(#mask0_819_1626)">
<path d="M5.92827 22C5.38942 22 4.93333 21.8158 4.56 21.4474C4.18667 21.0789 4 20.6289 4 20.0971V8.11342C4 7.58167 4.18667 7.13158 4.56 6.76316C4.93333 6.39474 5.38942 6.21053 5.92827 6.21053H8V5.94737C8 4.85702 8.3904 3.92649 9.1712 3.15579C9.95218 2.38526 10.8951 2 12 2C13.1049 2 14.0478 2.38526 14.8288 3.15579C15.6096 3.92649 16 4.85702 16 5.94737V6.21053H18.0717C18.6106 6.21053 19.0667 6.39474 19.44 6.76316C19.8133 7.13158 20 7.58167 20 8.11342V20.0971C20 20.6289 19.8133 21.0789 19.44 21.4474C19.0667 21.8158 18.6106 22 18.0717 22H5.92827ZM5.92827 20.4211H18.0717C18.1539 20.4211 18.2291 20.3873 18.2973 20.3197C18.3658 20.2524 18.4 20.1782 18.4 20.0971V8.11342C18.4 8.03237 18.3658 7.95816 18.2973 7.89079C18.2291 7.82325 18.1539 7.78947 18.0717 7.78947H16V10.1579C16 10.3819 15.9234 10.5695 15.7701 10.7205C15.6171 10.8718 15.427 10.9474 15.2 10.9474C14.973 10.9474 14.7829 10.8718 14.6299 10.7205C14.4766 10.5695 14.4 10.3819 14.4 10.1579V7.78947H9.6V10.1579C9.6 10.3819 9.52338 10.5695 9.37013 10.7205C9.21707 10.8718 9.02702 10.9474 8.8 10.9474C8.57298 10.9474 8.38293 10.8718 8.22987 10.7205C8.07662 10.5695 8 10.3819 8 10.1579V7.78947H5.92827C5.84613 7.78947 5.77093 7.82325 5.70267 7.89079C5.63422 7.95816 5.6 8.03237 5.6 8.11342V20.0971C5.6 20.1782 5.63422 20.2524 5.70267 20.3197C5.77093 20.3873 5.84613 20.4211 5.92827 20.4211ZM9.6 6.21053H14.4V5.94737C14.4 5.28754 14.1672 4.72781 13.7016 4.26816C13.236 3.80868 12.6688 3.57895 12 3.57895C11.3312 3.57895 10.764 3.80868 10.2984 4.26816C9.8328 4.72781 9.6 5.28754 9.6 5.94737V6.21053Z" fill="#191817"/>
</g>
</svg>
