<svg width="14" height="15" viewBox="0 0 14 15" fill="none" xmlns="http://www.w3.org/2000/svg">
<path d="M6.09583 0.880833C8.9775 0.880833 11.3167 3.22583 11.3167 6.10167C11.3167 7.49583 10.7742 8.80833 9.78833 9.79417C8.8025 10.78 7.49 11.3225 6.09583 11.3225C3.21417 11.3225 0.875 8.9775 0.875 6.10167C0.875 3.22583 3.22 0.880833 6.09583 0.880833ZM6.09583 0C2.73 0 0 2.73583 0 6.10167C0 9.4675 2.73 12.1975 6.09583 12.1975C7.78167 12.1975 9.30417 11.515 10.4067 10.4125C11.5092 9.31 12.1917 7.7875 12.1917 6.10167C12.1975 2.73583 9.4675 0 6.09583 0Z" fill="#989896"/>
<path d="M13.3871 13.4289L10.4062 10.4131" stroke="#989896" stroke-width="0.875" stroke-linecap="square" stroke-linejoin="bevel"/>
</svg>
