<svg width="11" height="11" viewBox="0 0 11 11" fill="none" xmlns="http://www.w3.org/2000/svg">
<path d="M5.03107 1.26725C5.19215 0.831944 5.80785 0.831944 5.96893 1.26725L6.90571 3.79888C6.95636 3.93574 7.06426 4.04364 7.20112 4.09429L9.73275 5.03107C10.1681 5.19215 10.1681 5.80785 9.73275 5.96893L7.20112 6.90571C7.06426 6.95636 6.95636 7.06426 6.90571 7.20112L5.96893 9.73275C5.80785 10.1681 5.19215 10.1681 5.03107 9.73275L4.09429 7.20112C4.04364 7.06426 3.93574 6.95636 3.79888 6.90571L1.26725 5.96893C0.831944 5.80785 0.831944 5.19215 1.26725 5.03107L3.79888 4.09429C3.93574 4.04364 4.04364 3.93574 4.09429 3.79888L5.03107 1.26725Z" fill="#773D4C"/>
</svg>
