<svg width="28" height="28" viewBox="0 0 28 28" fill="none" xmlns="http://www.w3.org/2000/svg">
<path d="M14.0026 10.4948C12.9616 10.478 11.9449 10.8098 11.1142 11.4375C10.2835 12.0651 9.68658 12.9525 9.41832 13.9584C9.15006 14.9644 9.2259 16.0312 9.63378 16.9891C10.0417 17.947 10.7581 18.741 11.6693 19.2448M14.0026 3.49479V5.82813M7.7026 21.4615L6.06927 23.0948M4.66927 15.1615H2.33594M7.7026 8.86146L6.06927 7.22813M23.3359 16.9524V4.66146C23.3359 3.37279 22.2913 2.32812 21.0026 2.32812C19.7139 2.32812 18.6693 3.37279 18.6693 4.66146V16.9524C17.2744 17.7593 16.3359 19.2675 16.3359 20.9948C16.3359 23.5721 18.4253 25.6615 21.0026 25.6615C23.5799 25.6615 25.6693 23.5721 25.6693 20.9948C25.6693 19.2675 24.7308 17.7593 23.3359 16.9524Z" stroke="#191817" stroke-width="1.75" stroke-linecap="round" stroke-linejoin="round"/>
</svg>
