<svg width="19" height="19" viewBox="0 0 19 19" fill="none" xmlns="http://www.w3.org/2000/svg">
<path d="M12.5 12.5V5.15C12.5 4.30992 12.5 3.88988 12.3365 3.56901C12.1927 3.28677 11.9632 3.0573 11.681 2.91349C11.3601 2.75 10.9401 2.75 10.1 2.75H4.4C3.55992 2.75 3.13988 2.75 2.81901 2.91349C2.53677 3.0573 2.3073 3.28677 2.16349 3.56901C2 3.88988 2 4.30992 2 5.15V10.1C2 10.9401 2 11.3601 2.16349 11.681C2.3073 11.9632 2.53677 12.1927 2.81901 12.3365C3.13988 12.5 3.55992 12.5 4.4 12.5H12.5ZM12.5 12.5H15.8C16.22 12.5 16.4301 12.5 16.5905 12.4183C16.7316 12.3463 16.8463 12.2316 16.9183 12.0905C17 11.9301 17 11.72 17 11.3V9.24706C17 9.06361 17 8.97189 16.9793 8.88558C16.9609 8.80905 16.9306 8.73589 16.8895 8.66879C16.8431 8.5931 16.7782 8.52824 16.6485 8.39853L15.1015 6.85147C14.9718 6.72176 14.9069 6.6569 14.8312 6.61052C14.7641 6.5694 14.691 6.53909 14.6144 6.52072C14.5281 6.5 14.4364 6.5 14.2529 6.5H12.5M7.25 14.375C7.25 15.4105 6.41053 16.25 5.375 16.25C4.33947 16.25 3.5 15.4105 3.5 14.375C3.5 13.3395 4.33947 12.5 5.375 12.5C6.41053 12.5 7.25 13.3395 7.25 14.375ZM15.5 14.375C15.5 15.4105 14.6605 16.25 13.625 16.25C12.5895 16.25 11.75 15.4105 11.75 14.375C11.75 13.3395 12.5895 12.5 13.625 12.5C14.6605 12.5 15.5 13.3395 15.5 14.375Z" stroke="#773D4C" stroke-width="1.6" stroke-linecap="round" stroke-linejoin="round"/>
</svg>
