<svg width="14" height="15" viewBox="0 0 14 15" fill="none" xmlns="http://www.w3.org/2000/svg">
<path d="M7.29167 2.55599H4.55C3.56991 2.55599 3.07986 2.55599 2.70552 2.74673C2.37623 2.91451 2.10852 3.18222 1.94074 3.51151C1.75 3.88585 1.75 4.3759 1.75 5.35599V10.256C1.75 11.2361 1.75 11.7261 1.94074 12.1005C2.10852 12.4298 2.37623 12.6975 2.70552 12.8653C3.07986 13.056 3.56991 13.056 4.55 13.056H9.91667C10.4591 13.056 10.7304 13.056 10.9529 12.9964C11.5568 12.8345 12.0286 12.3628 12.1904 11.7589C12.25 11.5364 12.25 11.2651 12.25 10.7227M11.0833 5.47266V1.97266M9.33333 3.72266H12.8333M6.125 5.76432C6.125 6.40866 5.60267 6.93099 4.95833 6.93099C4.314 6.93099 3.79167 6.40866 3.79167 5.76432C3.79167 5.11999 4.314 4.59766 4.95833 4.59766C5.60267 4.59766 6.125 5.11999 6.125 5.76432ZM8.74419 7.75824L3.80984 12.244C3.53229 12.4963 3.39352 12.6225 3.38125 12.7318C3.37061 12.8265 3.40693 12.9204 3.47852 12.9834C3.56112 13.056 3.74866 13.056 4.12375 13.056H9.59932C10.4388 13.056 10.8586 13.056 11.1883 12.915C11.6022 12.7379 11.9319 12.4082 12.109 11.9943C12.25 11.6646 12.25 11.2448 12.25 10.4053C12.25 10.1228 12.25 9.98161 12.2191 9.85008C12.1803 9.68478 12.1059 9.52995 12.0011 9.39639C11.9176 9.29011 11.8074 9.20188 11.5868 9.02542L9.95507 7.72004C9.73431 7.54344 9.62393 7.45513 9.50238 7.42397C9.39524 7.3965 9.2825 7.40006 9.17731 7.43423C9.05797 7.47299 8.95337 7.56808 8.74419 7.75824Z" stroke="#773D4C" stroke-linecap="round" stroke-linejoin="round"/>
</svg>
