<svg width="76" height="75" viewBox="0 0 76 75" fill="none" xmlns="http://www.w3.org/2000/svg">
<circle cx="37.833" cy="37.5" r="37" stroke="white"/>
<path d="M34.3328 38.0003L36.9995 40.667L42.9995 34.667M46.2011 28.665C46.4756 29.329 47.0027 29.8569 47.6663 30.1324L49.9932 31.0963C50.6572 31.3714 51.1848 31.899 51.4599 32.5631C51.7349 33.2272 51.7349 33.9733 51.4599 34.6374L50.4967 36.9627C50.2216 37.6271 50.2212 38.374 50.4976 39.0381L51.4591 41.3627C51.5954 41.6916 51.6657 42.0442 51.6657 42.4003C51.6658 42.7563 51.5957 43.1089 51.4594 43.4379C51.3232 43.7668 51.1234 44.0657 50.8716 44.3174C50.6198 44.5692 50.3209 44.7688 49.9919 44.905L47.6666 45.8681C47.0026 46.1427 46.4748 46.6697 46.1993 47.3334L45.2354 49.6604C44.9604 50.3244 44.4328 50.8521 43.7687 51.1271C43.1047 51.4022 42.3585 51.4022 41.6945 51.1271L39.3692 50.164C38.7051 49.8896 37.9593 49.8901 37.2956 50.1655L34.9687 51.128C34.305 51.4024 33.5595 51.4022 32.896 51.1274C32.2325 50.8525 31.7052 50.3255 31.4299 49.6621L30.4658 47.3344C30.1912 46.6704 29.6642 46.1426 29.0006 45.867L26.6737 44.9032C26.01 44.6282 25.4825 44.1009 25.2074 43.4372C24.9322 42.7735 24.9318 42.0277 25.2063 41.3637L26.1695 39.0384C26.4438 38.3743 26.4433 37.6284 26.1679 36.9647L25.2061 34.636C25.0698 34.3071 24.9996 33.9546 24.9995 33.5985C24.9995 33.2424 25.0696 32.8899 25.2058 32.5609C25.3421 32.2319 25.5418 31.9331 25.7936 31.6813C26.0454 31.4296 26.3443 31.23 26.6733 31.0938L28.9986 30.1306C29.662 29.8563 30.1895 29.3299 30.4652 28.6671L31.4291 26.3401C31.7042 25.676 32.2317 25.1484 32.8958 24.8733C33.5599 24.5982 34.306 24.5982 34.9701 24.8733L37.2953 25.8365C37.9594 26.1109 38.7053 26.1103 39.3689 25.8349L41.6968 24.8748C42.3608 24.5999 43.1068 24.5999 43.7707 24.8749C44.4346 25.15 44.9621 25.6774 45.2372 26.3413L46.2014 28.669L46.2011 28.665Z" stroke="white" stroke-width="2.4" stroke-linecap="round" stroke-linejoin="round"/>
</svg>
