<svg width="20" height="18" viewBox="0 0 20 18" fill="none" xmlns="http://www.w3.org/2000/svg">
<path d="M8.96138 16.9602L10.1104 18L11.2594 16.9602C12.9919 15.3843 14.4206 14.0301 15.5456 12.8976C16.6707 11.765 17.5633 10.757 18.2233 9.87358C18.8833 8.99035 19.3444 8.18458 19.6066 7.45627C19.8689 6.72814 20.0001 5.98926 20.0001 5.23964C20.0001 3.75246 19.502 2.50734 18.5057 1.5043C17.5093 0.501433 16.2724 0 14.795 0C13.8862 0 13.0273 0.213952 12.2185 0.641856C11.4096 1.06976 10.7069 1.68341 10.1104 2.4828C9.5139 1.68341 8.81121 1.06976 8.00233 0.641856C7.19346 0.213952 6.33462 0 5.42581 0C3.94843 0 2.71152 0.501433 1.71509 1.5043C0.718832 2.50734 0.220703 3.75246 0.220703 5.23964C0.220703 5.98926 0.351872 6.72814 0.614209 7.45627C0.876373 8.18458 1.33746 8.99035 1.99747 9.87358C2.65747 10.757 3.55171 11.765 4.68018 12.8976C5.80864 14.0301 7.23571 15.3843 8.96138 16.9602Z" fill="#773D4C"/>
</svg>
