<svg width="30" height="41" viewBox="0 0 30 41" fill="none" xmlns="http://www.w3.org/2000/svg">
<path d="M20.718 12.0625C21.8305 12.0625 22.918 11.7326 23.843 11.1145C24.7681 10.4964 25.489 9.61793 25.9148 8.5901C26.3405 7.56226 26.4519 6.43126 26.2349 5.34012C26.0178 4.24898 25.4821 3.2467 24.6954 2.46003C23.9088 1.67336 22.9065 1.13763 21.8153 0.920585C20.7242 0.703543 19.5932 0.814937 18.5654 1.24068C17.5375 1.66642 16.659 2.38739 16.0409 3.31242C15.4229 4.23745 15.093 5.32498 15.093 6.4375C15.093 7.92935 15.6856 9.36009 16.7405 10.415C17.7954 11.4699 19.2261 12.0625 20.718 12.0625ZM20.718 3.625C21.2742 3.625 21.818 3.78995 22.2805 4.09899C22.743 4.40804 23.1035 4.84729 23.3164 5.36121C23.5292 5.87512 23.5849 6.44062 23.4764 6.98619C23.3679 7.53177 23.1 8.03291 22.7067 8.42624C22.3134 8.81958 21.8122 9.08744 21.2666 9.19596C20.7211 9.30448 20.1556 9.24879 19.6417 9.03591C19.1277 8.82304 18.6885 8.46256 18.3794 8.00004C18.0704 7.53753 17.9055 6.99376 17.9055 6.4375C17.9055 5.69158 18.2018 4.97621 18.7292 4.44876C19.2567 3.92132 19.972 3.625 20.718 3.625ZM29.1555 23.3125V38.7813C29.1555 39.1542 29.0073 39.5119 28.7436 39.7756C28.4799 40.0393 28.1222 40.1875 27.7492 40.1875C27.3762 40.1875 27.0186 40.0393 26.7548 39.7756C26.4911 39.5119 26.343 39.1542 26.343 38.7813V24.659C21.8166 24.2635 20.3049 21.9309 18.9601 19.8496C18.4592 19.0779 17.9828 18.3432 17.3553 17.7068L14.9998 23.1227L21.5389 27.7932C21.7203 27.9237 21.8681 28.0955 21.9699 28.2945C22.0717 28.4936 22.1246 28.714 22.1242 28.9375V38.7813C22.1242 39.1542 21.976 39.5119 21.7123 39.7756C21.4486 40.0393 21.0909 40.1875 20.718 40.1875C20.345 40.1875 19.9873 40.0393 19.7236 39.7756C19.4599 39.5119 19.3117 39.1542 19.3117 38.7813V29.6617L13.8502 25.7594L7.94569 39.342C7.83641 39.5933 7.65608 39.8072 7.42685 39.9575C7.19763 40.1077 6.92951 40.1876 6.65546 40.1875C6.46236 40.188 6.27131 40.1478 6.09471 40.0697C5.75318 39.9208 5.48471 39.6424 5.34826 39.2957C5.21182 38.949 5.21855 38.5623 5.36698 38.2205L15.4779 14.9629C15.5547 14.7865 15.6668 14.6276 15.8074 14.4963C15.948 14.3649 16.1141 14.2638 16.2954 14.1993C16.4766 14.1347 16.6692 14.108 16.8612 14.1208C17.0532 14.1336 17.2405 14.1857 17.4115 14.2738C17.9167 14.5375 18.3888 14.8603 18.8178 15.2354C19.9375 16.2057 20.6652 17.3289 21.3068 18.3203C22.6568 20.4016 23.6306 21.9063 27.7404 21.9063C27.9258 21.9051 28.1096 21.9406 28.2813 22.0108C28.4529 22.0809 28.609 22.1843 28.7405 22.315C28.872 22.4457 28.9764 22.6011 29.0476 22.7723C29.1188 22.9435 29.1555 23.1271 29.1555 23.3125ZM6.65546 24.7188C6.9306 24.7186 7.19966 24.6378 7.42931 24.4862C7.65896 24.3347 7.83911 24.1191 7.94745 23.8662L12.1662 14.0225C12.3129 13.6798 12.3175 13.2929 12.1791 12.9468C12.0406 12.6007 11.7705 12.3237 11.4279 12.1768L6.50604 10.0674C6.16337 9.9207 5.77647 9.91607 5.43038 10.0545C5.08429 10.1929 4.80732 10.4631 4.66034 10.8057L0.44159 20.6494C0.294903 20.9921 0.290268 21.379 0.428704 21.7251C0.567141 22.0712 0.837321 22.3481 1.17987 22.4951L6.10175 24.6045C6.27668 24.6797 6.46505 24.7185 6.65546 24.7188ZM3.58104 20.4648L6.69061 13.2051L9.0285 14.207L5.91718 21.465L3.58104 20.4648Z" fill="black"/>
</svg>
