<svg width="45" height="33" viewBox="0 0 45 33" fill="none" xmlns="http://www.w3.org/2000/svg">
<path d="M28.8276 10.0625C29.801 10.0625 30.7526 9.77384 31.562 9.23302C32.3714 8.69219 33.0023 7.9235 33.3748 7.02415C33.7473 6.12479 33.8448 5.13517 33.6549 4.18042C33.4649 3.22567 32.9962 2.34867 32.3078 1.66034C31.6195 0.972 30.7425 0.503236 29.7878 0.313325C28.833 0.123413 27.8434 0.220883 26.944 0.593408C26.0447 0.965933 25.276 1.59678 24.7352 2.40618C24.1943 3.21558 23.9057 4.16717 23.9057 5.14063C23.9057 6.44599 24.4242 7.69789 25.3473 8.62092C26.2703 9.54395 27.5222 10.0625 28.8276 10.0625ZM28.8276 3.03125C29.2448 3.03125 29.6526 3.15497 29.9995 3.38675C30.3463 3.61853 30.6167 3.94797 30.7764 4.3334C30.936 4.71884 30.9778 5.14297 30.8964 5.55215C30.815 5.96132 30.6141 6.33718 30.3191 6.63218C30.0241 6.92718 29.6483 7.12808 29.2391 7.20947C28.8299 7.29086 28.4058 7.24909 28.0203 7.08944C27.6349 6.92978 27.3055 6.65942 27.0737 6.31253C26.8419 5.96565 26.7182 5.55782 26.7182 5.14063C26.7182 4.58119 26.9404 4.04466 27.336 3.64907C27.7316 3.25349 28.2681 3.03125 28.8276 3.03125ZM44.8026 30.4391L35.2119 14.2531C34.9646 13.8315 34.6108 13.4822 34.186 13.2404C33.7612 12.9985 33.2803 12.8725 32.7914 12.875C32.3028 12.8724 31.8221 12.9984 31.3976 13.2403C30.9731 13.4822 30.6196 13.8315 30.3727 14.2531L25.7742 22.0156L17.8922 8.63867C17.6438 8.21656 17.2895 7.86661 16.8644 7.62348C16.4392 7.38035 15.958 7.25245 15.4682 7.25245C14.9784 7.25245 14.4971 7.38035 14.072 7.62348C13.6468 7.86661 13.2925 8.21656 13.0442 8.63867L0.194552 30.4426C0.0687757 30.6561 0.00166945 30.8991 3.07487e-05 31.147C-0.00160795 31.3948 0.0622791 31.6386 0.185221 31.8538C0.308162 32.069 0.485792 32.2479 0.700117 32.3724C0.914442 32.4968 1.15785 32.5624 1.40569 32.5625H43.5932C43.8414 32.5625 44.0852 32.4967 44.2997 32.372C44.5143 32.2472 44.6921 32.0679 44.8149 31.8522C44.9377 31.6365 45.0013 31.3922 44.9991 31.144C44.997 30.8958 44.9291 30.6526 44.8026 30.4391ZM15.4682 10.0625L19.6113 17.0938H11.325L15.4682 10.0625ZM3.86662 29.75L9.6674 19.9063H21.269L24.5631 25.4961L27.0697 29.75H3.86662ZM30.334 29.75L27.4055 24.7789L32.7914 15.6875L41.1322 29.75H30.334Z" fill="black"/>
</svg>
