<svg width="41" height="41" viewBox="0 0 41 41" fill="none" xmlns="http://www.w3.org/2000/svg">
<path d="M32.8223 9.00221C31.805 6.57334 30.0926 4.49928 27.9003 3.04061C25.7079 1.58193 23.1333 0.803711 20.5 0.803711C17.8667 0.803711 15.2922 1.58193 13.0998 3.04061C10.9074 4.49928 9.19505 6.57334 8.17778 9.00221C5.98088 10.0063 4.11874 11.6205 2.813 13.6527C1.50725 15.6849 0.812888 18.0494 0.812541 20.4649C0.794963 27.1797 6.43754 32.9805 13.1418 33.1563C15.204 33.2061 17.2471 32.7517 19.0938 31.8327V38.7813C19.0938 39.1543 19.2419 39.512 19.5057 39.7757C19.7694 40.0394 20.1271 40.1876 20.5 40.1876C20.873 40.1876 21.2307 40.0394 21.4944 39.7757C21.7581 39.512 21.9063 39.1543 21.9063 38.7813V31.8327C23.6545 32.7007 25.5794 33.1537 27.5313 33.1563H27.8512C34.5625 32.9805 40.2069 27.1797 40.1875 20.4649C40.1872 18.0494 39.4928 15.6849 38.1871 13.6527C36.8813 11.6205 35.0192 10.0063 32.8223 9.00221ZM27.7862 30.3438C25.6891 30.3984 23.6293 29.7826 21.9063 28.586V21.379L29.5668 17.5504C29.7321 17.4678 29.8795 17.3534 30.0006 17.2138C30.1217 17.0742 30.214 16.9121 30.2725 16.7368C30.3309 16.5615 30.3542 16.3764 30.3412 16.1921C30.3281 16.0078 30.2788 15.8278 30.1961 15.6626C30.1135 15.4973 29.9991 15.3499 29.8595 15.2288C29.7199 15.1077 29.5578 15.0154 29.3825 14.9569C29.2072 14.8985 29.0221 14.8751 28.8378 14.8882C28.6535 14.9013 28.4735 14.9506 28.3082 15.0333L21.9063 18.2254V13.4688C21.9063 13.0958 21.7581 12.7382 21.4944 12.4744C21.2307 12.2107 20.873 12.0626 20.5 12.0626C20.1271 12.0626 19.7694 12.2107 19.5057 12.4744C19.2419 12.7382 19.0938 13.0958 19.0938 13.4688V22.4442L12.6918 19.2415C12.358 19.0746 11.9716 19.0471 11.6176 19.1651C11.2635 19.2831 10.9708 19.537 10.8039 19.8708C10.637 20.2046 10.6096 20.591 10.7276 20.945C10.8456 21.2991 11.0994 21.5918 11.4332 21.7587L19.0938 25.5872V28.5755C17.3712 29.773 15.3111 30.3889 13.2139 30.3333C8.002 30.2085 3.61098 25.6891 3.62504 20.4719C3.62371 18.5098 4.21118 16.5925 5.31147 14.9679C6.41175 13.3433 7.97421 12.0863 9.79672 11.3594C9.97955 11.286 10.1449 11.175 10.2821 11.0336C10.4193 10.8922 10.5252 10.7235 10.593 10.5385C11.3348 8.50719 12.683 6.75296 14.4551 5.51351C16.2272 4.27406 18.3375 3.6093 20.5 3.6093C22.6626 3.6093 24.7729 4.27406 26.5449 5.51351C28.317 6.75296 29.6653 8.50719 30.4071 10.5385C30.4749 10.7235 30.5808 10.8922 30.718 11.0336C30.8552 11.175 31.0205 11.286 31.2034 11.3594C33.0256 12.0867 34.5878 13.3438 35.688 14.9683C36.7882 16.5928 37.3759 18.5099 37.375 20.4719C37.3891 25.6891 32.9981 30.2085 27.7862 30.3438Z" fill="black"/>
</svg>
