<svg width="41" height="38" viewBox="0 0 41 38" fill="none" xmlns="http://www.w3.org/2000/svg">
<path d="M35.9688 34.5625H27.5312V30.3438H28.2344C31.4035 30.3405 34.442 29.0801 36.6829 26.8392C38.9239 24.5982 40.1842 21.5598 40.1875 18.3906C40.1875 17.0853 39.6689 15.8334 38.7459 14.9103C37.8229 13.9873 36.571 13.4688 35.2656 13.4688C33.9603 13.4688 32.7084 13.9873 31.7853 14.9103C30.8623 15.8334 30.3438 17.0853 30.3438 18.3906C30.3438 18.9501 30.1215 19.4866 29.7259 19.8822C29.3303 20.2778 28.7938 20.5 28.2344 20.5H27.5312V7.84375C27.5312 5.97895 26.7905 4.19052 25.4718 2.87191C24.1532 1.55329 22.3648 0.8125 20.5 0.8125C18.6352 0.8125 16.8468 1.55329 15.5282 2.87191C14.2095 4.19052 13.4688 5.97895 13.4688 7.84375V13.4688H12.7656C12.2062 13.4688 11.6697 13.2465 11.2741 12.8509C10.8785 12.4553 10.6562 11.9188 10.6562 11.3594C10.6562 10.054 10.1377 8.80211 9.21467 7.87908C8.29164 6.95605 7.03974 6.4375 5.73438 6.4375C4.42901 6.4375 3.17711 6.95605 2.25408 7.87908C1.33105 8.80211 0.8125 10.054 0.8125 11.3594C0.815757 14.5285 2.07615 17.567 4.31709 19.8079C6.55803 22.0489 9.59646 23.3092 12.7656 23.3125H13.4688V34.5625H5.03125C4.65829 34.5625 4.3006 34.7107 4.03688 34.9744C3.77316 35.2381 3.625 35.5958 3.625 35.9688C3.625 36.3417 3.77316 36.6994 4.03688 36.9631C4.3006 37.2268 4.65829 37.375 5.03125 37.375H35.9688C36.3417 37.375 36.6994 37.2268 36.9631 36.9631C37.2268 36.6994 37.375 36.3417 37.375 35.9688C37.375 35.5958 37.2268 35.2381 36.9631 34.9744C36.6994 34.7107 36.3417 34.5625 35.9688 34.5625ZM14.875 20.5H12.7656C10.3422 20.4972 8.01891 19.5333 6.30531 17.8197C4.59172 16.1061 3.62779 13.7828 3.625 11.3594C3.625 10.7999 3.84724 10.2634 4.24282 9.86782C4.63841 9.47224 5.17493 9.25 5.73438 9.25C6.29382 9.25 6.83034 9.47224 7.22593 9.86782C7.62151 10.2634 7.84375 10.7999 7.84375 11.3594C7.84375 12.6647 8.3623 13.9166 9.28533 14.8397C10.2084 15.7627 11.4603 16.2812 12.7656 16.2812H14.875C15.248 16.2812 15.6056 16.1331 15.8694 15.8694C16.1331 15.6056 16.2812 15.248 16.2812 14.875V7.84375C16.2812 6.72487 16.7257 5.65181 17.5169 4.86064C18.3081 4.06947 19.3811 3.625 20.5 3.625C21.6189 3.625 22.6919 4.06947 23.4831 4.86064C24.2743 5.65181 24.7188 6.72487 24.7188 7.84375V21.9062C24.7188 22.2792 24.8669 22.6369 25.1306 22.9006C25.3944 23.1643 25.752 23.3125 26.125 23.3125H28.2344C29.5397 23.3125 30.7916 22.7939 31.7147 21.8709C32.6377 20.9479 33.1562 19.696 33.1562 18.3906C33.1562 17.8312 33.3785 17.2947 33.7741 16.8991C34.1697 16.5035 34.7062 16.2812 35.2656 16.2812C35.8251 16.2812 36.3616 16.5035 36.7572 16.8991C37.1528 17.2947 37.375 17.8312 37.375 18.3906C37.3722 20.814 36.4083 23.1373 34.6947 24.8509C32.9811 26.5645 30.6578 27.5285 28.2344 27.5312H26.125C25.752 27.5312 25.3944 27.6794 25.1306 27.9431C24.8669 28.2069 24.7188 28.5645 24.7188 28.9375V34.5625H16.2812V21.9062C16.2812 21.5333 16.1331 21.1756 15.8694 20.9119C15.6056 20.6482 15.248 20.5 14.875 20.5Z" fill="black"/>
</svg>
