
<svg width="41" height="37" viewBox="0 0 41 37" fill="none" xmlns="http://www.w3.org/2000/svg">
  <path d="M40.1095 35.8406C40.013 36.1155 39.8334 36.3537 39.5957 36.5222C39.3579 36.6906 39.0737 36.7811 38.7823 36.781H2.21985C1.92829 36.7813 1.64386 36.6909 1.40593 36.5223C1.16801 36.3538 0.988346 36.1155 0.891813 35.8404C0.795279 35.5653 0.786648 35.2669 0.867112 34.9867C0.947577 34.7064 1.11316 34.4581 1.34094 34.2761C1.62747 34.0476 8.1138 28.957 18.6185 28.3963C18.0721 26.2187 17.8769 23.968 18.0402 21.7289C18.3443 17.9127 19.9579 12.8291 25.59 8.98826C24.7265 8.77849 23.8418 8.6682 22.9532 8.65954H22.6597C19.3198 8.76853 17.221 10.7179 16.2437 14.622C16.1675 14.9269 15.9914 15.1974 15.7435 15.3904C15.4957 15.5835 15.1903 15.688 14.8761 15.6873C14.7576 15.6888 14.6394 15.6746 14.5245 15.6451C14.1628 15.5546 13.8518 15.3241 13.66 15.0044C13.4681 14.6846 13.4111 14.3018 13.5015 13.94C15.1275 7.44489 19.3216 5.95603 22.5542 5.85408C23.8381 5.82603 25.1199 5.97088 26.3652 6.28474C25.6937 5.17204 24.7093 4.01189 23.34 3.42829C21.5822 2.68298 19.4429 3.00818 16.9573 4.39685C16.7958 4.48688 16.618 4.54419 16.4343 4.56553C16.2505 4.58687 16.0644 4.57181 15.8865 4.52121C15.7086 4.47061 15.5424 4.38546 15.3973 4.27062C15.2523 4.15579 15.1314 4.01351 15.0413 3.85193C14.9513 3.69034 14.894 3.5126 14.8727 3.32886C14.8513 3.14512 14.8664 2.95898 14.917 2.78106C14.9676 2.60314 15.0527 2.43693 15.1676 2.29192C15.2824 2.14691 15.4247 2.02594 15.5863 1.93591C18.8804 0.0989976 21.8652 -0.268385 24.4597 0.846068C26.6552 1.78826 28.1036 3.6199 29.0089 5.2406C30.0935 3.54607 31.447 2.39822 32.9429 1.9113C35.0277 1.23103 37.2741 1.78474 39.6226 3.55837C39.907 3.78763 40.091 4.11857 40.1357 4.48113C40.1804 4.84369 40.0823 5.20943 39.8621 5.5009C39.6419 5.79238 39.3169 5.98673 38.9559 6.0428C38.5949 6.09888 38.2263 6.01228 37.9281 5.80134C36.3618 4.61833 34.9802 4.20876 33.8253 4.58318C32.5421 4.99626 31.563 6.34099 30.946 7.5029C32.2145 7.75826 33.4352 8.21082 34.5636 8.84412C37.1318 10.3119 40.1886 13.4232 40.1886 19.9078C40.1886 20.2807 40.0404 20.6384 39.7767 20.9022C39.513 21.1659 39.1553 21.314 38.7823 21.314C38.4094 21.314 38.0517 21.1659 37.788 20.9022C37.5243 20.6384 37.3761 20.2807 37.3761 19.9078C37.3761 15.784 35.9593 12.8765 33.1573 11.2945C32.8312 11.1092 32.4936 10.9449 32.1466 10.8023C33.032 12.6024 33.3426 14.6312 33.0361 16.6136C32.815 18.0804 32.2841 19.4832 31.4786 20.7287C31.2631 21.031 30.9367 21.2358 30.5707 21.2984C30.2047 21.361 29.8288 21.2763 29.5251 21.0628C29.2213 20.8493 29.0143 20.5243 28.9492 20.1587C28.8841 19.7932 28.9662 19.4167 29.1777 19.1115C29.3095 18.9199 32.0482 14.826 28.6046 10.4332C23.8585 13.1068 21.2411 16.981 20.8421 21.9627C20.6867 24.1208 20.9146 26.2895 21.5154 28.3681C32.5281 28.6863 39.3607 34.0511 39.656 34.2849C39.8828 34.4658 40.0481 34.7124 40.1293 34.9909C40.2105 35.2694 40.2036 35.5662 40.1095 35.8406ZM7.14173 25.531C8.11518 25.531 9.06678 25.2424 9.87617 24.7015C10.6856 24.1607 11.3164 23.392 11.6889 22.4927C12.0615 21.5933 12.1589 20.6037 11.969 19.6489C11.7791 18.6942 11.3104 17.8172 10.622 17.1289C9.93368 16.4405 9.05669 15.9718 8.10194 15.7818C7.14719 15.5919 6.15756 15.6894 5.2582 16.0619C4.35885 16.4345 3.59016 17.0653 3.04934 17.8747C2.50851 18.6841 2.21985 19.6357 2.21985 20.6092C2.21985 21.9145 2.7384 23.1664 3.66143 24.0894C4.58446 25.0125 5.83636 25.531 7.14173 25.531Z" fill="black"/>
</svg>
