<svg width="42" height="34" viewBox="0 0 42 34" fill="none" xmlns="http://www.w3.org/2000/svg">
<path d="M36.5625 7.03125C36.5625 7.40421 36.4143 7.7619 36.1506 8.02562C35.8869 8.28934 35.5292 8.4375 35.1562 8.4375H29.5312C29.1583 8.4375 28.8006 8.28934 28.5369 8.02562C28.2732 7.7619 28.125 7.40421 28.125 7.03125C28.125 6.65829 28.2732 6.3006 28.5369 6.03688C28.8006 5.77316 29.1583 5.625 29.5312 5.625H35.1562C35.5292 5.625 35.8869 5.77316 36.1506 6.03688C36.4143 6.3006 36.5625 6.65829 36.5625 7.03125ZM35.1562 11.25H29.5312C29.1583 11.25 28.8006 11.3982 28.5369 11.6619C28.2732 11.9256 28.125 12.2833 28.125 12.6562C28.125 13.0292 28.2732 13.3869 28.5369 13.6506C28.8006 13.9143 29.1583 14.0625 29.5312 14.0625H35.1562C35.5292 14.0625 35.8869 13.9143 36.1506 13.6506C36.4143 13.3869 36.5625 13.0292 36.5625 12.6562C36.5625 12.2833 36.4143 11.9256 36.1506 11.6619C35.8869 11.3982 35.5292 11.25 35.1562 11.25ZM42.1875 2.8125V30.9375C42.1875 31.6834 41.8912 32.3988 41.3637 32.9262C40.8363 33.4537 40.1209 33.75 39.375 33.75H25.3125C24.5666 33.75 23.8512 33.4537 23.3238 32.9262C22.7963 32.3988 22.5 31.6834 22.5 30.9375V28.125H15.4688V30.9375H18.2812C18.6542 30.9375 19.0119 31.0857 19.2756 31.3494C19.5393 31.6131 19.6875 31.9708 19.6875 32.3438C19.6875 32.7167 19.5393 33.0744 19.2756 33.3381C19.0119 33.6018 18.6542 33.75 18.2812 33.75H9.84375C9.47079 33.75 9.1131 33.6018 8.84938 33.3381C8.58566 33.0744 8.4375 32.7167 8.4375 32.3438C8.4375 31.9708 8.58566 31.6131 8.84938 31.3494C9.1131 31.0857 9.47079 30.9375 9.84375 30.9375H12.6562V28.125H4.21875C3.09987 28.125 2.02681 27.6805 1.23564 26.8894C0.444474 26.0982 0 25.0251 0 23.9062V11.25C0 10.1311 0.444474 9.05806 1.23564 8.26689C2.02681 7.47572 3.09987 7.03125 4.21875 7.03125H22.5V2.8125C22.5 2.06658 22.7963 1.35121 23.3238 0.823762C23.8512 0.296316 24.5666 0 25.3125 0H39.375C40.1209 0 40.8363 0.296316 41.3637 0.823762C41.8912 1.35121 42.1875 2.06658 42.1875 2.8125ZM22.5 25.3125V9.84375H4.21875C3.84579 9.84375 3.4881 9.99191 3.22438 10.2556C2.96066 10.5194 2.8125 10.877 2.8125 11.25V23.9062C2.8125 24.2792 2.96066 24.6369 3.22438 24.9006C3.4881 25.1643 3.84579 25.3125 4.21875 25.3125H22.5ZM39.375 30.9375V2.8125H25.3125V30.9375H39.375ZM32.3438 23.9062C31.9266 23.9062 31.5187 24.03 31.1718 24.2617C30.825 24.4935 30.5546 24.823 30.3949 25.2084C30.2353 25.5938 30.1935 26.018 30.2749 26.4271C30.3563 26.8363 30.5572 27.2122 30.8522 27.5072C31.1472 27.8022 31.5231 28.0031 31.9322 28.0845C32.3414 28.1659 32.7655 28.1241 33.151 27.9644C33.5364 27.8048 33.8658 27.5344 34.0976 27.1875C34.3294 26.8406 34.4531 26.4328 34.4531 26.0156C34.4531 25.4562 34.2309 24.9197 33.8353 24.5241C33.4397 24.1285 32.9032 23.9062 32.3438 23.9062Z" fill="black"/>
</svg>
